<svg width="0" height="0" class="hidden">
  <symbol xmlns="http://www.w3.org/2000/svg" viewBox="0 0 98 96" id="github-mark-white">
    <path fill-rule="evenodd" clip-rule="evenodd" d="M48.854 0C21.839 0 0 22 0 49.217c0 21.756 13.993 40.172 33.405 46.69 2.427.49 3.316-1.059 3.316-2.362 0-1.141-.08-5.052-.08-9.127-13.59 2.934-16.42-5.867-16.42-5.867-2.184-5.704-5.42-7.17-5.42-7.17-4.448-3.015.324-3.015.324-3.015 4.934.326 7.523 5.052 7.523 5.052 4.367 7.496 11.404 5.378 14.235 4.074.404-3.178 1.699-5.378 3.074-6.6-10.839-1.141-22.243-5.378-22.243-24.283 0-5.378 1.94-9.778 5.014-13.2-.485-1.222-2.184-6.275.486-13.038 0 0 4.125-1.304 13.426 5.052a46.97 46.97 0 0 1 12.214-1.63c4.125 0 8.33.571 12.213 1.63 9.302-6.356 13.427-5.052 13.427-5.052 2.67 6.763.97 11.816.485 13.038 3.155 3.422 5.015 7.822 5.015 13.2 0 18.905-11.404 23.06-22.324 24.283 1.78 1.548 3.316 4.481 3.316 9.126 0 6.6-.08 11.897-.08 13.526 0 1.304.89 2.853 3.316 2.364 19.412-6.52 33.405-24.935 33.405-46.691C97.707 22 75.788 0 48.854 0z"></path>
  </symbol>
  <symbol version="1.1" id="musical-note" xmlns="http://www.w3.org/2000/svg" xmlns:xlink="http://www.w3.org/1999/xlink" xml:space="preserve" viewBox="0 0 512 512">
    <g>
      <g>
        <path d="M503.319,5.939c-5.506-4.705-12.783-6.767-19.958-5.635L169.555,49.852c-12.04,1.901-20.909,12.28-20.909,24.47v99.097
			v156.903H99.097C44.455,330.323,0,371.073,0,421.161C0,471.25,44.455,512,99.097,512c54.642,0,99.097-40.75,99.097-90.839v-66.065
			V194.588l264.258-41.725v136.169h-49.548c-54.642,0-99.097,40.75-99.097,90.839s44.455,90.839,99.097,90.839
			S512,429.959,512,379.871v-66.065V123.871V24.774C512,17.529,508.827,10.646,503.319,5.939z"></path>
      </g>
    </g>
  </symbol>
    <symbol version="1.1" xmlns="http://www.w3.org/2000/svg" xmlns:xlink="http://www.w3.org/1999/xlink" x="0px" y="0px" enable-background="new 0 0 1000 1000" xml:space="preserve" viewBox="0 0 1000 1000" id="vinyl-icon">
    <g>
      <g transform="translate(0.000000,511.000000) scale(0.100000,-0.100000)">
        <path d="M352.9,3916c-84.3-24.9-206.9-151.4-231.8-241.4C105.7,3624.8,100,2502.1,100,84.1v-3517.7l44.1-84.3c24.9-46,82.4-109.2,126.5-141.8l82.4-57.5h4650h4650l78.6,51.7c42.1,28.8,97.7,84.3,122.6,124.5l46,72.8V109v3575.1l-57.5,82.4c-30.6,44.1-95.8,101.5-141.8,126.5l-84.3,44.1l-4600.2-1.9C2178.8,3935.2,391.2,3927.5,352.9,3916z M9629.9,3755.1c34.5-17.2,76.6-53.6,93.9-84.3c30.7-51.7,32.6-291.2,32.6-3556c0-3879.8,9.6-3594.3-124.5-3657.5c-57.5-26.8-511.6-30.6-4636.6-30.6c-4199.7,0-4577.2,1.9-4627,30.6c-28.7,17.2-67.1,55.6-84.3,84.3c-28.7,49.8-30.7,348.7-30.7,3554.1c0,3870.2-9.6,3592.4,120.7,3657.5c55.6,26.8,521.1,30.7,4627,30.7C9043.6,3783.8,9576.2,3780,9629.9,3755.1z"></path>
        <g class="rotate">
          <path d="M3564,3073c-475.1-55.6-984.8-260.6-1417.8-572.9C1991,2389,1648.1,2046,1536.9,1890.9C1061.8,1231.8,870.2,492.2,971.7-281.8c88.1-668.7,375.5-1247.3,862.2-1730.1c287.4-287.4,570.9-479,931.1-632.3c979-415.8,2096-279.7,2960.1,360.2c170.5,126.5,469.4,425.3,595.9,595.9c471.3,634.2,672.5,1408.2,570.9,2180.3c-67.1,511.5-249.1,959.9-565.2,1398.6c-113,157.1-434.9,480.9-601.6,603.5C5100.6,2956.1,4336.1,3161.1,3564,3073z M4449.2,2892.9c1030.8-201.2,1862.3-935,2180.3-1925.5C6731,649.3,6756,476.9,6756,105.2c0-371.7-24.9-544.1-126.5-862.2c-279.7-871.7-963.7-1555.8-1835.5-1835.5c-318-101.5-490.5-126.5-862.2-126.5s-544.1,24.9-862.2,126.5C2196-2312.7,1514-1630.6,1234.2-757c-99.6,314.2-126.5,490.5-126.5,862.2c0,371.7,24.9,542.2,126.5,862.2C1514,1841,2196,2523.1,3069.7,2802.8c164.8,53.7,394.7,103.5,574.8,126.5C3780.5,2946.5,4292.1,2923.6,4449.2,2892.9z"></path>
          <path d="M3608.1,2689.8c-1107.4-145.6-1998.3-973.3-2226.3-2065.4c-21.1-99.6-40.2-266.3-42.1-371.7c-3.8-162.9,1.9-193.5,30.6-212.7c23-15.3,42.2-15.3,67.1,0c24.9,17.3,36.4,61.3,46,201.2c47.9,643.8,300.8,1187.9,751,1622.8c279.7,270.1,580.5,452.2,938.8,569c228,72.8,375.5,101.5,622.7,120.7c139.9,9.6,183.9,21.1,201.2,47.9c15.3,23,15.3,42.2,0,67.1C3972.1,2707,3807.3,2716.6,3608.1,2689.8z"></path>
          <path d="M3615.7,2306.6c-298.9-44.1-680.2-193.5-933.1-364c-153.3-105.4-413.8-354.4-534.5-515.4c-124.5-162.9-293.1-503.9-352.5-712.7c-53.6-193.5-92-450.2-82.4-569c5.7-97.7,51.7-139.9,107.3-105.4c24.9,17.3,36.4,61.3,47.9,201.2c30.7,390.8,189.7,814.3,413.8,1111.2c356.4,467.5,912,768.3,1513.6,816.2c139.9,11.5,183.9,23,201.2,49.8c15.3,23,15.3,42.2,0,67.1C3972.1,2323.9,3801.6,2333.4,3615.7,2306.6z"></path>
          <path d="M3611.9,1915.8c-779.8-143.7-1385.2-770.2-1500.2-1553.8c-26.8-189.7-19.2-295.1,24.9-321.9c65.1-42.1,97.7,7.7,113,172.5c38.3,431.1,203.1,789.4,494.3,1080.6c291.2,291.2,649.5,456,1080.6,494.3c113,9.6,157.1,21.1,172.4,47.9C4058.3,1931.1,3887.8,1967.5,3611.9,1915.8z"></path>
          <path d="M3644.5,1532.6c-588.2-128.4-1021.2-565.2-1140-1151.5c-38.3-187.8-32.6-312.3,15.3-341c63.2-40.2,97.7,7.7,113,151.4c19.2,185.8,49.8,308.5,120.7,459.8C2881.9,931,3085,1137.9,3366.7,1272c166.7,82.4,281.6,113,479,132.2c93.9,9.6,136,23,151.4,47.9C4056.4,1547.9,3889.7,1586.2,3644.5,1532.6z"></path>
          <path d="M3711.5,1155.1c-172.4-30.6-396.6-155.2-534.5-295c-572.9-570.9-335.3-1517.4,448.3-1781.8c147.5-49.8,467.5-49.8,613.1,0c362.1,122.6,597.8,358.3,720.4,720.4c49.8,145.6,49.8,465.6,0,613.1c-101.5,300.8-293.1,525-555.6,651.4C4175.2,1172.4,3954.9,1201.1,3711.5,1155.1z M4152.2,996.1c329.5-86.2,584.4-342.9,670.6-674.4c124.5-477.1-180.1-979-670.6-1107.4C3671.3-910.2,3169.3-605.6,3041-115.1C2870.4,542,3495,1166.6,4152.2,996.1z"></path>
          <path d="M5259.6,158.9c-11.5-13.4-24.9-86.2-32.6-162.9c-26.8-304.6-160.9-593.9-377.4-808.5c-216.5-216.5-502-348.7-820-381.3c-155.2-15.3-203.1-49.8-162.9-113c28.7-47.9,153.3-53.7,341-15.3c590.1,118.8,1028.9,555.6,1149.6,1143.8c36.4,176.3,40.2,304.6,7.7,337.2C5334.3,189.5,5282.6,187.6,5259.6,158.9z"></path>
          <path d="M5642.8,158.9c-11.5-13.4-24.9-93.9-32.6-178.2c-32.6-406.2-203.1-776-490.5-1063.3c-289.3-289.3-653.3-456-1080.6-494.3c-164.8-15.3-214.6-47.9-172.4-113c19.2-28.7,47.9-34.5,191.6-30.7c218.4,5.8,429.2,59.4,657.2,168.6c205,99.6,325.7,182,486.6,333.4c316.1,298.9,528.8,747.2,563.3,1184c7.6,115,3.8,166.7-13.4,187.8C5723.3,187.6,5667.7,191.4,5642.8,158.9z"></path>
          <path d="M6026,158.9c-11.5-13.4-24.9-105.4-32.6-203.1c-24.9-344.9-159-730-356.3-1017.4c-344.9-507.7-935-846.8-1569.2-896.7c-139.9-11.5-183.9-23-201.2-47.9c-34.5-55.6,7.7-101.5,105.4-107.3c118.8-9.6,375.5,28.7,569,82.4c208.8,59.4,549.9,228,712.7,352.5c160.9,120.7,410,381.3,515.4,534.5c113,166.7,241.4,442.6,297,638c80.4,279.7,113,616.9,65.1,664.8C6100.7,189.5,6049,187.6,6026,158.9z"></path>
          <path d="M6407.3,158.9c-13.4-13.4-23-67.1-23-118.8c0-53.6-13.4-180.1-28.7-279.7c-78.6-517.3-291.2-958-645.7-1333.5c-436.8-459.8-988.6-720.4-1641.9-770.2c-139.9-9.6-183.9-21.1-201.2-46c-15.3-24.9-15.3-44.1,0-67.1c19.2-28.7,49.8-34.5,208.8-30.6c101.5,1.9,256.7,17.2,342.9,34.5c1164.9,229.9,2029,1207,2111.4,2391.1c9.6,137.9,7.7,191.6-11.5,214.6C6489.6,187.6,6439.8,191.4,6407.3,158.9z"></path>
        </g>
        <path d="M3813.1,304.5c-147.5-78.6-143.7-310.4,3.8-398.5c195.4-115,429.2,118.8,314.2,314.2C4066,327.5,3924.2,365.8,3813.1,304.5z M3989.3,153.1c49.8-61.3-24.9-155.2-90.1-113.1c-67.1,42.2-44.1,141.8,32.6,141.8C3951,181.9,3975.9,168.4,3989.3,153.1z"></path>
        <path d="M8093.3,2917.8c-32.6-32.6-32.6-687.8,0-720.4c13.4-13.4,47.9-23,76.6-23h53.6V641.7V-891.1H8168c-30.6,0-63.2-11.5-74.7-24.9c-11.5-11.5-38.3-312.3-61.3-664.8c-40.2-613.1-40.2-639.9-7.7-664.8c47.9-34.5,503.9-34.5,551.8,0c32.6,24.9,32.6,51.7-5.8,664.8c-24.9,369.8-49.8,649.5-63.2,664.8c-11.5,13.4-44.1,24.9-74.7,24.9h-55.6V641.7v1532.7h53.6c28.7,0,63.2,9.6,76.6,23c32.6,32.6,32.6,687.8,0,720.4C8476.5,2948.5,8123.9,2948.5,8093.3,2917.8z M8376.8,2557.6v-229.9h-76.6h-76.6v229.9v229.9h76.6h76.6V2557.6z M8384.5-1086.5c5.7-24.9,19.2-212.7,30.7-417.7c11.5-205,24.9-427.2,30.6-492.4l11.5-120.7H8304h-155.2l7.7,63.2c5.7,32.6,17.2,216.5,28.7,406.2c11.5,189.7,24.9,402.3,32.6,475.1l11.5,128.4h72.8C8363.4-1044.3,8376.8-1052,8384.5-1086.5z"></path>
        <path d="M818.5-2603.9c-193.5-84.3-239.5-341-88.1-492.4c124.5-124.5,300.8-124.5,425.3,0C1393.3-2858.7,1126.9-2469.8,818.5-2603.9z M1048.4-2778.3c95.8-93.9,28.7-258.7-105.4-258.7c-78.6,0-153.3,74.7-153.3,153.3c0,78.5,74.7,153.3,153.3,153.3C979.4-2730.4,1019.6-2747.6,1048.4-2778.3z"></path>
        <path d="M7409.3-2603.9c-193.5-84.3-239.5-341-88.1-492.4c124.5-124.5,300.8-124.5,425.3,0C7984.1-2858.7,7717.7-2469.8,7409.3-2603.9z M7639.2-2778.3c95.8-93.9,28.7-258.7-105.4-258.7c-78.5,0-153.3,74.7-153.3,153.3c0,78.5,74.7,153.3,153.3,153.3C7570.2-2730.4,7610.5-2747.6,7639.2-2778.3z"></path>
        <path d="M8175.7-2603.9c-193.5-84.3-239.5-341-88.1-492.4c124.5-124.5,300.8-124.5,425.3,0C8750.4-2858.7,8484.1-2469.8,8175.7-2603.9z M8405.6-2778.3c95.8-93.9,28.7-258.7-105.4-258.7c-78.5,0-153.3,74.7-153.3,153.3c0,78.5,74.7,153.3,153.3,153.3C8336.6-2730.4,8376.8-2747.6,8405.6-2778.3z"></path>
        <path d="M8942-2603.9c-193.5-84.3-239.5-341-88.1-492.4c124.5-124.5,300.8-124.5,425.3,0C9516.8-2858.7,9250.5-2469.8,8942-2603.9z M9171.9-2778.3c95.8-93.9,28.7-258.7-105.4-258.7c-78.5,0-153.3,74.7-153.3,153.3c0,78.5,74.7,153.3,153.3,153.3C9103-2730.4,9143.2-2747.6,9171.9-2778.3z"></path>
      </g>
    </g>
  </symbol>
  <symbol fill="none" xmlns="http://www.w3.org/2000/svg" viewBox="0 0 815 336" id="app-logo">
    <circle cx="160" cy="169" r="157.5" stroke="white" stroke-width="5"/>
    <circle cx="171" cy="160" r="159" stroke="white" stroke-width="2"/>
    <path d="M408.02 110.12C399.247 110.12 393.88 106.06 391.92 97.94L390.17 90.73H386.88V109H371.55V60.84H392.76C396.773 60.84 400.297 61.4467 403.33 62.66C406.41 63.8267 408.79 65.4833 410.47 67.63C412.15 69.7767 412.99 72.25 412.99 75.05C412.99 78.1767 412.22 80.8133 410.68 82.96C409.187 85.06 406.853 86.7867 403.68 88.14C404.007 89.9133 404.38 91.5233 404.8 92.97C405.36 94.7433 406.13 95.98 407.11 96.68C408.09 97.38 409.513 97.73 411.38 97.73C412.033 97.73 413.06 97.6367 414.46 97.45V108.86C412.267 109.7 410.12 110.12 408.02 110.12ZM389.54 80.93C392.993 80.93 395.42 80.5567 396.82 79.81C398.267 79.0167 398.99 77.6867 398.99 75.82C398.99 74.2333 398.407 73.09 397.24 72.39C396.073 71.6433 394.23 71.27 391.71 71.27H386.88V80.93H389.54ZM436.587 110.12C430.007 110.12 424.454 108.907 419.927 106.48L423.427 95.63C428.234 97.3567 432.527 98.22 436.307 98.22C438.36 98.22 439.854 97.9867 440.787 97.52C441.767 97.0067 442.257 96.26 442.257 95.28C442.257 94.6267 442 94.0667 441.487 93.6C440.974 93.0867 439.947 92.5267 438.407 91.92C436.867 91.3133 434.557 90.5667 431.477 89.68C427.697 88.56 424.757 86.74 422.657 84.22C420.557 81.6533 419.507 78.7133 419.507 75.4C419.507 70.2667 421.187 66.3933 424.547 63.78C427.954 61.12 432.527 59.79 438.267 59.79C441.254 59.79 444.194 60.1167 447.087 60.77C449.98 61.3767 452.547 62.2867 454.787 63.5L451.007 74.07C448.394 73.1833 446.107 72.5533 444.147 72.18C442.234 71.76 440.367 71.55 438.547 71.55C435.467 71.55 433.927 72.39 433.927 74.07C433.927 74.91 434.417 75.6333 435.397 76.24C436.424 76.8 438.5 77.5233 441.627 78.41C446.527 79.7167 450.237 81.7233 452.757 84.43C455.277 87.09 456.537 90.2867 456.537 94.02C456.537 99.2 454.857 103.19 451.497 105.99C448.137 108.743 443.167 110.12 436.587 110.12ZM478.659 60.84H493.219L505.259 84.22L517.019 60.84H531.579V109H517.019V83.31L508.129 100.11H502.179L493.219 83.31V109H478.659V60.84ZM565.36 110.12C560.74 110.12 556.61 109.233 552.97 107.46C549.376 105.687 546.576 103.213 544.57 100.04C542.563 96.82 541.56 93.1567 541.56 89.05V60.84H557.38V89.05C557.38 91.85 558.056 93.95 559.41 95.35C560.763 96.75 562.746 97.45 565.36 97.45C567.973 97.45 569.956 96.75 571.31 95.35C572.663 93.9033 573.34 91.8033 573.34 89.05V60.84H589.16V89.05C589.16 93.1567 588.156 96.82 586.15 100.04C584.143 103.213 581.32 105.687 577.68 107.46C574.086 109.233 569.98 110.12 565.36 110.12ZM613.989 110.12C607.409 110.12 601.856 108.907 597.329 106.48L600.829 95.63C605.636 97.3567 609.929 98.22 613.709 98.22C615.763 98.22 617.256 97.9867 618.189 97.52C619.169 97.0067 619.659 96.26 619.659 95.28C619.659 94.6267 619.403 94.0667 618.889 93.6C618.376 93.0867 617.349 92.5267 615.809 91.92C614.269 91.3133 611.959 90.5667 608.879 89.68C605.099 88.56 602.159 86.74 600.059 84.22C597.959 81.6533 596.909 78.7133 596.909 75.4C596.909 70.2667 598.589 66.3933 601.949 63.78C605.356 61.12 609.929 59.79 615.669 59.79C618.656 59.79 621.596 60.1167 624.489 60.77C627.383 61.3767 629.949 62.2867 632.189 63.5L628.409 74.07C625.796 73.1833 623.509 72.5533 621.549 72.18C619.636 71.76 617.769 71.55 615.949 71.55C612.869 71.55 611.329 72.39 611.329 74.07C611.329 74.91 611.819 75.6333 612.799 76.24C613.826 76.8 615.903 77.5233 619.029 78.41C623.929 79.7167 627.639 81.7233 630.159 84.43C632.679 87.09 633.939 90.2867 633.939 94.02C633.939 99.2 632.259 103.19 628.899 105.99C625.539 108.743 620.569 110.12 613.989 110.12ZM641.755 60.84H657.925V109H641.755V60.84ZM690.978 110.12C686.311 110.12 682.065 109.023 678.238 106.83C674.458 104.59 671.448 101.557 669.208 97.73C667.015 93.8567 665.918 89.5867 665.918 84.92C665.918 80.16 666.991 75.8667 669.138 72.04C671.285 68.2133 674.225 65.2267 677.958 63.08C681.691 60.8867 685.891 59.79 690.558 59.79C693.078 59.79 695.551 60.0933 697.978 60.7C700.405 61.3067 702.481 62.17 704.208 63.29L702.318 74.14C698.958 72.88 695.925 72.25 693.218 72.25C689.485 72.25 686.615 73.3467 684.608 75.54C682.601 77.6867 681.598 80.79 681.598 84.85C681.598 88.8167 682.648 91.92 684.748 94.16C686.895 96.3533 689.858 97.45 693.638 97.45C695.085 97.45 696.438 97.31 697.698 97.03C698.958 96.75 700.498 96.2367 702.318 95.49L704.278 106.55C700.218 108.93 695.785 110.12 690.978 110.12Z" fill="white"/>
    <path d="M398.2 141.92H446.84L478.68 252H441.08L436.92 230.88H408.44L403.8 252H367.8L398.2 141.92ZM433.08 211.2L422.68 163.04L411.8 211.2H433.08ZM490.525 141.92H530.205C546.632 141.92 559.325 145.12 568.285 151.52C577.352 157.92 581.885 166.88 581.885 178.4C581.885 185.653 579.645 192 575.165 197.44C570.792 202.88 564.765 207.093 557.085 210.08C549.512 212.96 541.085 214.4 531.805 214.4H525.085V252H490.525V141.92ZM531.965 192.16C537.618 192.16 541.992 190.987 545.085 188.64C548.178 186.293 549.725 182.88 549.725 178.4C549.725 173.92 548.178 170.56 545.085 168.32C542.098 166.08 537.725 164.96 531.965 164.96H525.085V191.84C527.218 192.053 529.512 192.16 531.965 192.16ZM595.681 141.92H635.361C651.788 141.92 664.481 145.12 673.441 151.52C682.508 157.92 687.041 166.88 687.041 178.4C687.041 185.653 684.801 192 680.321 197.44C675.948 202.88 669.921 207.093 662.241 210.08C654.668 212.96 646.241 214.4 636.961 214.4H630.241V252H595.681V141.92ZM637.121 192.16C642.775 192.16 647.148 190.987 650.241 188.64C653.335 186.293 654.881 182.88 654.881 178.4C654.881 173.92 653.335 170.56 650.241 168.32C647.255 166.08 642.881 164.96 637.121 164.96H630.241V191.84C632.375 192.053 634.668 192.16 637.121 192.16Z" fill="white"/>
    <rect x="116" y="75" width="110" height="170" rx="3" fill="white"/>
    <circle cx="171.5" cy="113.5" r="12.5" stroke="black" stroke-width="10"/>
    <path d="M177.81 189.5C177.81 193.875 174.491 197 170.905 197C167.318 197 164 193.875 164 189.5C164 185.125 167.318 182 170.905 182C174.491 182 177.81 185.125 177.81 189.5Z" stroke="black" stroke-width="10"/>
    <circle cx="171" cy="190" r="35" stroke="black" stroke-width="10"/>
    <path d="M262 150C280.111 186.721 269.546 218.634 262 230" stroke="white" stroke-width="5" stroke-linecap="round"/>
    <path d="M240 160C253.583 187.541 245.66 211.475 240 220" stroke="white" stroke-width="5" stroke-linecap="round"/>
    <path d="M79 150C60.889 186.721 71.4538 218.634 79 230" stroke="white" stroke-width="5" stroke-linecap="round"/>
    <path d="M101.5 160C87.9168 187.541 95.8403 211.475 101.5 220" stroke="white" stroke-width="5" stroke-linecap="round"/>
    <line x1="133.5" y1="245.5" x2="133.5" y2="250.5" stroke="white" stroke-width="5" stroke-linecap="round"/>
    <line x1="213.5" y1="245.5" x2="213.5" y2="250.5" stroke="white" stroke-width="5" stroke-linecap="round"/>
  </symbol>
  <symbol fill="none" xmlns="http://www.w3.org/2000/svg" viewBox="0 0 815 336" id="app-logo-dark">
    <circle cx="160" cy="169" r="157.5" stroke="black" stroke-width="5"/>
    <circle cx="171" cy="160" r="159" stroke="black" stroke-width="2"/>
    <path d="M408.02 110.12C399.247 110.12 393.88 106.06 391.92 97.94L390.17 90.73H386.88V109H371.55V60.84H392.76C396.773 60.84 400.297 61.4467 403.33 62.66C406.41 63.8267 408.79 65.4833 410.47 67.63C412.15 69.7767 412.99 72.25 412.99 75.05C412.99 78.1767 412.22 80.8133 410.68 82.96C409.187 85.06 406.853 86.7867 403.68 88.14C404.007 89.9133 404.38 91.5233 404.8 92.97C405.36 94.7433 406.13 95.98 407.11 96.68C408.09 97.38 409.513 97.73 411.38 97.73C412.033 97.73 413.06 97.6367 414.46 97.45V108.86C412.267 109.7 410.12 110.12 408.02 110.12ZM389.54 80.93C392.993 80.93 395.42 80.5567 396.82 79.81C398.267 79.0167 398.99 77.6867 398.99 75.82C398.99 74.2333 398.407 73.09 397.24 72.39C396.073 71.6433 394.23 71.27 391.71 71.27H386.88V80.93H389.54ZM436.587 110.12C430.007 110.12 424.454 108.907 419.927 106.48L423.427 95.63C428.234 97.3567 432.527 98.22 436.307 98.22C438.36 98.22 439.854 97.9867 440.787 97.52C441.767 97.0067 442.257 96.26 442.257 95.28C442.257 94.6267 442 94.0667 441.487 93.6C440.974 93.0867 439.947 92.5267 438.407 91.92C436.867 91.3133 434.557 90.5667 431.477 89.68C427.697 88.56 424.757 86.74 422.657 84.22C420.557 81.6533 419.507 78.7133 419.507 75.4C419.507 70.2667 421.187 66.3933 424.547 63.78C427.954 61.12 432.527 59.79 438.267 59.79C441.254 59.79 444.194 60.1167 447.087 60.77C449.98 61.3767 452.547 62.2867 454.787 63.5L451.007 74.07C448.394 73.1833 446.107 72.5533 444.147 72.18C442.234 71.76 440.367 71.55 438.547 71.55C435.467 71.55 433.927 72.39 433.927 74.07C433.927 74.91 434.417 75.6333 435.397 76.24C436.424 76.8 438.5 77.5233 441.627 78.41C446.527 79.7167 450.237 81.7233 452.757 84.43C455.277 87.09 456.537 90.2867 456.537 94.02C456.537 99.2 454.857 103.19 451.497 105.99C448.137 108.743 443.167 110.12 436.587 110.12ZM478.659 60.84H493.219L505.259 84.22L517.019 60.84H531.579V109H517.019V83.31L508.129 100.11H502.179L493.219 83.31V109H478.659V60.84ZM565.36 110.12C560.74 110.12 556.61 109.233 552.97 107.46C549.376 105.687 546.576 103.213 544.57 100.04C542.563 96.82 541.56 93.1567 541.56 89.05V60.84H557.38V89.05C557.38 91.85 558.056 93.95 559.41 95.35C560.763 96.75 562.746 97.45 565.36 97.45C567.973 97.45 569.956 96.75 571.31 95.35C572.663 93.9033 573.34 91.8033 573.34 89.05V60.84H589.16V89.05C589.16 93.1567 588.156 96.82 586.15 100.04C584.143 103.213 581.32 105.687 577.68 107.46C574.086 109.233 569.98 110.12 565.36 110.12ZM613.989 110.12C607.409 110.12 601.856 108.907 597.329 106.48L600.829 95.63C605.636 97.3567 609.929 98.22 613.709 98.22C615.763 98.22 617.256 97.9867 618.189 97.52C619.169 97.0067 619.659 96.26 619.659 95.28C619.659 94.6267 619.403 94.0667 618.889 93.6C618.376 93.0867 617.349 92.5267 615.809 91.92C614.269 91.3133 611.959 90.5667 608.879 89.68C605.099 88.56 602.159 86.74 600.059 84.22C597.959 81.6533 596.909 78.7133 596.909 75.4C596.909 70.2667 598.589 66.3933 601.949 63.78C605.356 61.12 609.929 59.79 615.669 59.79C618.656 59.79 621.596 60.1167 624.489 60.77C627.383 61.3767 629.949 62.2867 632.189 63.5L628.409 74.07C625.796 73.1833 623.509 72.5533 621.549 72.18C619.636 71.76 617.769 71.55 615.949 71.55C612.869 71.55 611.329 72.39 611.329 74.07C611.329 74.91 611.819 75.6333 612.799 76.24C613.826 76.8 615.903 77.5233 619.029 78.41C623.929 79.7167 627.639 81.7233 630.159 84.43C632.679 87.09 633.939 90.2867 633.939 94.02C633.939 99.2 632.259 103.19 628.899 105.99C625.539 108.743 620.569 110.12 613.989 110.12ZM641.755 60.84H657.925V109H641.755V60.84ZM690.978 110.12C686.311 110.12 682.065 109.023 678.238 106.83C674.458 104.59 671.448 101.557 669.208 97.73C667.015 93.8567 665.918 89.5867 665.918 84.92C665.918 80.16 666.991 75.8667 669.138 72.04C671.285 68.2133 674.225 65.2267 677.958 63.08C681.691 60.8867 685.891 59.79 690.558 59.79C693.078 59.79 695.551 60.0933 697.978 60.7C700.405 61.3067 702.481 62.17 704.208 63.29L702.318 74.14C698.958 72.88 695.925 72.25 693.218 72.25C689.485 72.25 686.615 73.3467 684.608 75.54C682.601 77.6867 681.598 80.79 681.598 84.85C681.598 88.8167 682.648 91.92 684.748 94.16C686.895 96.3533 689.858 97.45 693.638 97.45C695.085 97.45 696.438 97.31 697.698 97.03C698.958 96.75 700.498 96.2367 702.318 95.49L704.278 106.55C700.218 108.93 695.785 110.12 690.978 110.12Z" fill="black"/>
    <path d="M398.2 141.92H446.84L478.68 252H441.08L436.92 230.88H408.44L403.8 252H367.8L398.2 141.92ZM433.08 211.2L422.68 163.04L411.8 211.2H433.08ZM490.525 141.92H530.205C546.632 141.92 559.325 145.12 568.285 151.52C577.352 157.92 581.885 166.88 581.885 178.4C581.885 185.653 579.645 192 575.165 197.44C570.792 202.88 564.765 207.093 557.085 210.08C549.512 212.96 541.085 214.4 531.805 214.4H525.085V252H490.525V141.92ZM531.965 192.16C537.618 192.16 541.992 190.987 545.085 188.64C548.178 186.293 549.725 182.88 549.725 178.4C549.725 173.92 548.178 170.56 545.085 168.32C542.098 166.08 537.725 164.96 531.965 164.96H525.085V191.84C527.218 192.053 529.512 192.16 531.965 192.16ZM595.681 141.92H635.361C651.788 141.92 664.481 145.12 673.441 151.52C682.508 157.92 687.041 166.88 687.041 178.4C687.041 185.653 684.801 192 680.321 197.44C675.948 202.88 669.921 207.093 662.241 210.08C654.668 212.96 646.241 214.4 636.961 214.4H630.241V252H595.681V141.92ZM637.121 192.16C642.775 192.16 647.148 190.987 650.241 188.64C653.335 186.293 654.881 182.88 654.881 178.4C654.881 173.92 653.335 170.56 650.241 168.32C647.255 166.08 642.881 164.96 637.121 164.96H630.241V191.84C632.375 192.053 634.668 192.16 637.121 192.16Z" fill="black"/>
    <rect x="116" y="75" width="110" height="170" rx="3" fill="black"/>
    <circle cx="171.5" cy="113.5" r="12.5" stroke="white" stroke-width="10"/>
    <path d="M177.81 189.5C177.81 193.875 174.491 197 170.905 197C167.318 197 164 193.875 164 189.5C164 185.125 167.318 182 170.905 182C174.491 182 177.81 185.125 177.81 189.5Z" stroke="white" stroke-width="10"/>
    <circle cx="171" cy="190" r="35" stroke="white" stroke-width="10"/>
    <path d="M262 150C280.111 186.721 269.546 218.634 262 230" stroke="black" stroke-width="5" stroke-linecap="round"/>
    <path d="M240 160C253.583 187.541 245.66 211.475 240 220" stroke="black" stroke-width="5" stroke-linecap="round"/>
    <path d="M79 150C60.889 186.721 71.4538 218.634 79 230" stroke="black" stroke-width="5" stroke-linecap="round"/>
    <path d="M101.5 160C87.9168 187.541 95.8403 211.475 101.5 220" stroke="black" stroke-width="5" stroke-linecap="round"/>
    <line x1="133.5" y1="245.5" x2="133.5" y2="250.5" stroke="black" stroke-width="5" stroke-linecap="round"/>
    <line x1="213.5" y1="245.5" x2="213.5" y2="250.5" stroke="black" stroke-width="5" stroke-linecap="round"/>
  </symbol>
</svg>
