<svg width="0" height="0" class="hidden">
  <symbol xmlns="http://www.w3.org/2000/svg" viewBox="0 0 98 96" id="github-mark-white">
    <path fill-rule="evenodd" clip-rule="evenodd" d="M48.854 0C21.839 0 0 22 0 49.217c0 21.756 13.993 40.172 33.405 46.69 2.427.49 3.316-1.059 3.316-2.362 0-1.141-.08-5.052-.08-9.127-13.59 2.934-16.42-5.867-16.42-5.867-2.184-5.704-5.42-7.17-5.42-7.17-4.448-3.015.324-3.015.324-3.015 4.934.326 7.523 5.052 7.523 5.052 4.367 7.496 11.404 5.378 14.235 4.074.404-3.178 1.699-5.378 3.074-6.6-10.839-1.141-22.243-5.378-22.243-24.283 0-5.378 1.94-9.778 5.014-13.2-.485-1.222-2.184-6.275.486-13.038 0 0 4.125-1.304 13.426 5.052a46.97 46.97 0 0 1 12.214-1.63c4.125 0 8.33.571 12.213 1.63 9.302-6.356 13.427-5.052 13.427-5.052 2.67 6.763.97 11.816.485 13.038 3.155 3.422 5.015 7.822 5.015 13.2 0 18.905-11.404 23.06-22.324 24.283 1.78 1.548 3.316 4.481 3.316 9.126 0 6.6-.08 11.897-.08 13.526 0 1.304.89 2.853 3.316 2.364 19.412-6.52 33.405-24.935 33.405-46.691C97.707 22 75.788 0 48.854 0z"></path>
  </symbol>
  <symbol id="rss-logo" xmlns="http://www.w3.org/2000/svg" xmlns:xlink="http://www.w3.org/1999/xlink" viewBox="0 0 552.8 205.3">
    <title>rs_school_js</title>
    <path d="M285.4 68l26.3-1.7c.6 4.3 1.7 7.5 3.5 9.8 2.9 3.6 6.9 5.4 12.2 5.4 3.9 0 7-.9 9.1-2.8 2-1.5 3.2-3.9 3.2-6.4 0-2.4-1.1-4.7-3-6.2-2-1.8-6.7-3.6-14.1-5.2-12.1-2.7-20.8-6.3-25.9-10.9-5.1-4.3-8-10.6-7.8-17.3 0-4.6 1.4-9.2 4-13 3-4.3 7.1-7.7 12-9.6 5.3-2.3 12.7-3.5 22-3.5 11.4 0 20.1 2.1 26.1 6.4 6 4.2 9.6 11 10.7 20.3l-26 1.5c-.7-4-2.1-6.9-4.4-8.8s-5.3-2.8-9.2-2.8c-3.2 0-5.6.7-7.2 2-1.5 1.2-2.5 3-2.4 5 0 1.5.8 2.9 2 3.8 1.3 1.2 4.4 2.3 9.3 3.3 12.1 2.6 20.7 5.2 26 7.9 5.3 2.7 9.1 6 11.4 9.9 2.4 4 3.6 8.6 3.5 13.3 0 5.6-1.6 11.2-4.8 15.9-3.3 4.9-7.9 8.7-13.3 11-5.7 2.5-12.9 3.8-21.5 3.8-15.2 0-25.7-2.9-31.6-8.8S286.1 77 285.4 68zM6.3 97.6V8.2h46.1c8.5 0 15.1.7 19.6 2.2 4.4 1.4 8.3 4.3 10.9 8.2 2.9 4.3 4.3 9.3 4.2 14.5.3 8.8-4.2 17.2-11.9 21.6-3 1.7-6.3 2.9-9.7 3.5 2.5.7 5 1.9 7.2 3.3 1.7 1.4 3.1 3 4.4 4.7 1.5 1.7 2.8 3.6 3.9 5.6l13.4 25.9H63L48.2 70.2c-1.9-3.5-3.5-5.8-5-6.9-2-1.4-4.4-2.1-6.8-2.1H34v36.3H6.3zM34 44.4h11.7c2.5-.2 4.9-.6 7.3-1.2 1.8-.3 3.4-1.3 4.5-2.8 2.7-3.6 2.3-8.7-1-11.8-1.8-1.5-5.3-2.3-10.3-2.3H34v18.1zM0 174.2l26.3-1.7c.6 4.3 1.7 7.5 3.5 9.8 2.8 3.6 6.9 5.5 12.2 5.5 3.9 0 7-.9 9.1-2.8 2-1.6 3.2-3.9 3.2-6.4 0-2.4-1.1-4.7-3-6.2-2-1.8-6.7-3.6-14.2-5.2-12.1-2.7-20.8-6.3-25.9-10.9-5.1-4.3-8-10.6-7.8-17.3 0-4.6 1.4-9.2 4-13 3-4.3 7.1-7.7 12-9.6 5.3-2.3 12.7-3.5 22-3.5 11.4 0 20.1 2.1 26.1 6.4s9.5 11 10.6 20.3l-26 1.5c-.7-4-2.1-6.9-4.4-8.8-2.2-1.9-5.3-2.8-9.2-2.7-3.2 0-5.6.7-7.2 2.1-1.6 1.2-2.5 3-2.4 5 0 1.5.8 2.9 2 3.8 1.3 1.2 4.4 2.3 9.3 3.3 12.1 2.6 20.7 5.2 26 7.9 5.3 2.7 9.1 6 11.4 9.9 2.4 4 3.6 8.6 3.6 13.2 0 5.6-1.7 11.1-4.8 15.8-3.3 4.9-7.9 8.7-13.3 11-5.7 2.5-12.9 3.8-21.5 3.8-15.2 0-25.7-2.9-31.6-8.8-5.9-6-9.2-13.4-10-22.4z"></path>
    <path d="M133 167.2l24.2 7.3c-1.3 6.1-4 11.9-7.7 17-3.4 4.5-7.9 8-13 10.3-5.2 2.3-11.8 3.5-19.8 3.5-9.7 0-17.7-1.4-23.8-4.2-6.2-2.8-11.5-7.8-16-14.9-4.5-7.1-6.7-16.2-6.7-27.3 0-14.8 3.9-26.2 11.8-34.1s19-11.9 33.4-11.9c11.3 0 20.1 2.3 26.6 6.8 6.4 4.6 11.2 11.6 14.4 21l-24.4 5.4c-.6-2.1-1.5-4.2-2.7-6-1.5-2.1-3.4-3.7-5.7-4.9-2.3-1.2-4.9-1.7-7.5-1.7-6.3 0-11.1 2.5-14.4 7.6-2.5 3.7-3.8 9.6-3.8 17.6 0 9.9 1.5 16.7 4.5 20.4 3 3.7 7.2 5.5 12.7 5.5 5.3 0 9.3-1.5 12-4.4 2.7-3.1 4.7-7.4 5.9-13zm56.5-52.8h27.6v31.3h30.2v-31.3h27.8v89.4h-27.8v-36.2h-30.2v36.2h-27.6v-89.4z"></path>
    <path d="M271.3 159.1c0-14.6 4.1-26 12.2-34.1 8.1-8.1 19.5-12.2 34-12.2 14.9 0 26.3 4 34.4 12S364 144 364 158.4c0 10.5-1.8 19-5.3 25.7-3.4 6.6-8.7 12-15.2 15.6-6.7 3.7-15 5.6-24.9 5.6-10.1 0-18.4-1.6-25-4.8-6.8-3.4-12.4-8.7-16.1-15.2-4.1-7-6.2-15.7-6.2-26.2zm27.6.1c0 9 1.7 15.5 5 19.5 3.3 3.9 7.9 5.9 13.7 5.9 5.9 0 10.5-1.9 13.8-5.8s4.9-10.8 4.9-20.8c0-8.4-1.7-14.6-5.1-18.4-3.4-3.9-8-5.8-13.8-5.8-5.1-.2-10 2-13.4 5.9-3.4 3.9-5.1 10.4-5.1 19.5zm93.4-.1c0-14.6 4.1-26 12.2-34.1 8.1-8.1 19.5-12.2 34-12.2 14.9 0 26.4 4 34.4 12S485 144 485 158.4c0 10.5-1.8 19-5.3 25.7-3.4 6.6-8.7 12-15.2 15.6-6.7 3.7-15 5.6-24.9 5.6-10.1 0-18.4-1.6-25-4.8-6.8-3.4-12.4-8.7-16.1-15.2-4.1-7-6.2-15.7-6.2-26.2zm27.6.1c0 9 1.7 15.5 5 19.5 3.3 3.9 7.9 5.9 13.7 5.9 5.9 0 10.5-1.9 13.8-5.8 3.3-3.9 4.9-10.8 4.9-20.8 0-8.4-1.7-14.6-5.1-18.4-3.4-3.9-8-5.8-13.8-5.8-5.1-.2-10.1 2-13.4 5.9-3.4 3.9-5.1 10.4-5.1 19.5z"></path>
    <path d="M482.1 114.4h27.6v67.4h43.1v22H482v-89.4z"></path>
    <ellipse transform="rotate(-37.001 420.46 67.88)" cx="420.5" cy="67.9" rx="63" ry="51.8"></ellipse>
    <defs>
      <ellipse id="SVGID_1_" transform="rotate(-37.001 420.46 67.88)" cx="420.5" cy="67.9" rx="63" ry="51.8"></ellipse>
    </defs>
    <clipPath id="SVGID_2_">
      <use xlink:href="#SVGID_1_" overflow="visible"></use>
    </clipPath>
    <g>
      <path transform="rotate(-37.001 420.82 68.353)" d="M330.9-14.2h179.8v165.1H330.9z"></path>
      <g id="Layer_2_1_">
        <defs>
          <path id="SVGID_3_" transform="rotate(-37.001 420.82 68.353)" d="M330.9-14.2h179.8v165.1H330.9z"></path>
        </defs>
        <clipPath id="SVGID_4_">
          <use xlink:href="#SVGID_3_" overflow="visible"></use>
        </clipPath>
        <g id="Layer_1-2">
          <ellipse transform="rotate(-37.001 420.46 67.88)" cx="420.5" cy="67.9" rx="63" ry="51.8"></ellipse>
          <defs>
            <ellipse id="SVGID_5_" transform="rotate(-37.001 420.46 67.88)" cx="420.5" cy="67.9" rx="63" ry="51.8"></ellipse>
          </defs>
          <clipPath id="SVGID_6_">
            <use xlink:href="#SVGID_5_" overflow="visible"></use>
          </clipPath>
          <g>
            <path transform="rotate(-37 420.799 68.802)" d="M357.8 17h125.9v103.7H357.8z"></path>
            <defs>
              <path id="SVGID_7_" transform="rotate(-37 420.799 68.802)" d="M357.8 17h125.9v103.7H357.8z"></path>
            </defs>
            <clipPath id="SVGID_8_">
              <use xlink:href="#SVGID_7_" overflow="visible"></use>
            </clipPath>
            <g>
              <ellipse transform="rotate(-37.001 420.46 67.88)" cx="420.5" cy="67.9" rx="63" ry="51.8"></ellipse>
            </g>
            <path transform="rotate(-37 420.799 68.802)" d="M357.8 17h125.9v103.7H357.8z"></path>
            <ellipse transform="rotate(-37.001 420.46 67.88)" cx="420.5" cy="67.9" rx="63" ry="51.8"></ellipse>
            <path transform="rotate(-37 420.799 68.802)" d="M357.8 17h125.9v103.7H357.8z"></path>
            <defs>
              <path id="SVGID_9_" transform="rotate(-37 420.799 68.802)" d="M357.8 17h125.9v103.7H357.8z"></path>
            </defs>
            <clipPath id="SVGID_10_">
              <use xlink:href="#SVGID_9_" overflow="visible"></use>
            </clipPath>
            <g>
              <ellipse transform="rotate(-37.001 420.46 67.88)" cx="420.5" cy="67.9" rx="63" ry="51.8"></ellipse>
            </g>
            <path transform="rotate(-37 420.799 68.802)" d="M357.8 17h125.9v103.7H357.8z"></path>
            <path transform="rotate(-37.001 420.82 68.353)" d="M330.9-14.2h179.8v165.1H330.9z"></path>
          </g>
          <ellipse transform="rotate(-37.001 420.46 67.88)" cx="420.5" cy="67.9" rx="63" ry="51.8"></ellipse>
          <path d="M392.4 61.3l10-7 12.3 17.5c2.1 2.8 3.7 5.8 4.9 9.1.7 2.5.5 5.2-.5 7.6-1.3 3-3.4 5.5-6.2 7.3-3.3 2.3-6.1 3.6-8.5 4-2.3.4-4.7 0-6.9-1-2.4-1.2-4.5-2.9-6.1-5.1l8.6-8c.7 1.1 1.6 2.1 2.6 2.9.7.5 1.5.8 2.4.8.7 0 1.4-.3 1.9-.7 1-.6 1.7-1.8 1.6-3-.3-1.7-1-3.4-2.1-4.7l-14-19.7zm30 11.1l9.1-7.2c1 1.2 2.3 2.1 3.7 2.6 2 .6 4.1.2 5.8-1.1 1.2-.8 2.2-1.9 2.6-3.3.6-1.8-.4-3.8-2.2-4.4-.3-.1-.6-.2-.9-.2-1.2-.1-3.3.4-6.4 1.7-5.1 2.1-9.1 2.9-12.1 2.6-2.9-.3-5.6-1.8-7.2-4.3-1.2-1.7-1.8-3.7-1.9-5.7 0-2.3.6-4.6 1.9-6.5 1.9-2.7 4.2-5 7-6.8 4.2-2.9 7.9-4.3 11.1-4.3 3.2 0 6.2 1.5 9 4.6l-9 7.1c-1.8-2.3-5.2-2.8-7.5-1l-.3.3c-1 .6-1.7 1.5-2.1 2.6-.3.8-.1 1.7.4 2.4.4.5 1 .9 1.7.9.8.1 2.2-.3 4.2-1.2 5-2.1 8.8-3.3 11.4-3.7 2.2-.4 4.5-.2 6.6.7 1.9.8 3.5 2.2 4.6 3.9 1.4 2 2.2 4.4 2.3 6.9.1 2.6-.6 5.1-2 7.3-1.8 2.7-4.1 5-6.8 6.8-5.5 3.8-10 5.4-13.6 4.8-3.9-.6-7.1-2.6-9.4-5.5z"></path>
        </g>
      </g>
    </g>
  </symbol>
  <symbol version="1.1" id="musical-note" xmlns="http://www.w3.org/2000/svg" xmlns:xlink="http://www.w3.org/1999/xlink" xml:space="preserve" viewBox="0 0 512 512">
    <g>
      <g>
        <path d="M503.319,5.939c-5.506-4.705-12.783-6.767-19.958-5.635L169.555,49.852c-12.04,1.901-20.909,12.28-20.909,24.47v99.097
			v156.903H99.097C44.455,330.323,0,371.073,0,421.161C0,471.25,44.455,512,99.097,512c54.642,0,99.097-40.75,99.097-90.839v-66.065
			V194.588l264.258-41.725v136.169h-49.548c-54.642,0-99.097,40.75-99.097,90.839s44.455,90.839,99.097,90.839
			S512,429.959,512,379.871v-66.065V123.871V24.774C512,17.529,508.827,10.646,503.319,5.939z"></path>
      </g>
    </g>
  </symbol>
  <symbol fill="none" xmlns="http://www.w3.org/2000/svg" viewBox="0 0 338 336" id="app-logo">
    <circle cx="163.5" cy="172.5" r="161" stroke="white" stroke-width="5"></circle>
    <circle cx="174.5" cy="163.5" r="163" stroke="white"></circle>
    <path d="M119.58 216.48C115.82 216.48 113.52 214.74 112.68 211.26L111.93 208.17H110.52V216H103.95V195.36H113.04C114.76 195.36 116.27 195.62 117.57 196.14C118.89 196.64 119.91 197.35 120.63 198.27C121.35 199.19 121.71 200.25 121.71 201.45C121.71 202.79 121.38 203.92 120.72 204.84C120.08 205.74 119.08 206.48 117.72 207.06C117.86 207.82 118.02 208.51 118.2 209.13C118.44 209.89 118.77 210.42 119.19 210.72C119.61 211.02 120.22 211.17 121.02 211.17C121.3 211.17 121.74 211.13 122.34 211.05V215.94C121.4 216.3 120.48 216.48 119.58 216.48ZM111.66 203.97C113.14 203.97 114.18 203.81 114.78 203.49C115.4 203.15 115.71 202.58 115.71 201.78C115.71 201.1 115.46 200.61 114.96 200.31C114.46 199.99 113.67 199.83 112.59 199.83H110.52V203.97H111.66ZM132.537 216.48C129.717 216.48 127.337 215.96 125.397 214.92L126.897 210.27C128.957 211.01 130.797 211.38 132.417 211.38C133.297 211.38 133.937 211.28 134.337 211.08C134.757 210.86 134.967 210.54 134.967 210.12C134.967 209.84 134.857 209.6 134.637 209.4C134.417 209.18 133.977 208.94 133.317 208.68C132.657 208.42 131.667 208.1 130.347 207.72C128.727 207.24 127.467 206.46 126.567 205.38C125.667 204.28 125.217 203.02 125.217 201.6C125.217 199.4 125.937 197.74 127.377 196.62C128.837 195.48 130.797 194.91 133.257 194.91C134.537 194.91 135.797 195.05 137.037 195.33C138.277 195.59 139.377 195.98 140.337 196.5L138.717 201.03C137.597 200.65 136.617 200.38 135.777 200.22C134.957 200.04 134.157 199.95 133.377 199.95C132.057 199.95 131.397 200.31 131.397 201.03C131.397 201.39 131.607 201.7 132.027 201.96C132.467 202.2 133.357 202.51 134.697 202.89C136.797 203.45 138.387 204.31 139.467 205.47C140.547 206.61 141.087 207.98 141.087 209.58C141.087 211.8 140.367 213.51 138.927 214.71C137.487 215.89 135.357 216.48 132.537 216.48ZM151.997 195.36H158.237L163.397 205.38L168.437 195.36H174.677V216H168.437V204.99L164.627 212.19H162.077L158.237 204.99V216H151.997V195.36ZM189.868 216.48C187.888 216.48 186.118 216.1 184.558 215.34C183.018 214.58 181.818 213.52 180.958 212.16C180.098 210.78 179.668 209.21 179.668 207.45V195.36H186.448V207.45C186.448 208.65 186.738 209.55 187.318 210.15C187.898 210.75 188.748 211.05 189.868 211.05C190.988 211.05 191.838 210.75 192.418 210.15C192.998 209.53 193.288 208.63 193.288 207.45V195.36H200.068V207.45C200.068 209.21 199.638 210.78 198.778 212.16C197.918 213.52 196.708 214.58 195.148 215.34C193.608 216.1 191.848 216.48 189.868 216.48ZM211.424 216.48C208.604 216.48 206.224 215.96 204.284 214.92L205.784 210.27C207.844 211.01 209.684 211.38 211.304 211.38C212.184 211.38 212.824 211.28 213.224 211.08C213.644 210.86 213.854 210.54 213.854 210.12C213.854 209.84 213.744 209.6 213.524 209.4C213.304 209.18 212.864 208.94 212.204 208.68C211.544 208.42 210.554 208.1 209.234 207.72C207.614 207.24 206.354 206.46 205.454 205.38C204.554 204.28 204.104 203.02 204.104 201.6C204.104 199.4 204.824 197.74 206.264 196.62C207.724 195.48 209.684 194.91 212.144 194.91C213.424 194.91 214.684 195.05 215.924 195.33C217.164 195.59 218.264 195.98 219.224 196.5L217.604 201.03C216.484 200.65 215.504 200.38 214.664 200.22C213.844 200.04 213.044 199.95 212.264 199.95C210.944 199.95 210.284 200.31 210.284 201.03C210.284 201.39 210.494 201.7 210.914 201.96C211.354 202.2 212.244 202.51 213.584 202.89C215.684 203.45 217.274 204.31 218.354 205.47C219.434 206.61 219.974 207.98 219.974 209.58C219.974 211.8 219.254 213.51 217.814 214.71C216.374 215.89 214.244 216.48 211.424 216.48ZM224.038 195.36H230.968V216H224.038V195.36ZM245.848 216.48C243.848 216.48 242.028 216.01 240.388 215.07C238.768 214.11 237.478 212.81 236.518 211.17C235.578 209.51 235.108 207.68 235.108 205.68C235.108 203.64 235.568 201.8 236.488 200.16C237.408 198.52 238.668 197.24 240.268 196.32C241.868 195.38 243.668 194.91 245.668 194.91C246.748 194.91 247.808 195.04 248.848 195.3C249.888 195.56 250.778 195.93 251.518 196.41L250.708 201.06C249.268 200.52 247.968 200.25 246.808 200.25C245.208 200.25 243.978 200.72 243.118 201.66C242.258 202.58 241.828 203.91 241.828 205.65C241.828 207.35 242.278 208.68 243.178 209.64C244.098 210.58 245.368 211.05 246.988 211.05C247.608 211.05 248.188 210.99 248.728 210.87C249.268 210.75 249.928 210.53 250.708 210.21L251.548 214.95C249.808 215.97 247.908 216.48 245.848 216.48Z" fill="white"></path>
    <path d="M119.65 222.84H140.93L154.86 271H138.41L136.59 261.76H124.13L122.1 271H106.35L119.65 222.84ZM134.91 253.15L130.36 232.08L125.6 253.15H134.91ZM160.745 222.84H178.105C185.292 222.84 190.845 224.24 194.765 227.04C198.732 229.84 200.715 233.76 200.715 238.8C200.715 241.973 199.735 244.75 197.775 247.13C195.862 249.51 193.225 251.353 189.865 252.66C186.552 253.92 182.865 254.55 178.805 254.55H175.865V271H160.745V222.84ZM178.875 244.82C181.349 244.82 183.262 244.307 184.615 243.28C185.969 242.253 186.645 240.76 186.645 238.8C186.645 236.84 185.969 235.37 184.615 234.39C183.309 233.41 181.395 232.92 178.875 232.92H175.865V244.68C176.799 244.773 177.802 244.82 178.875 244.82ZM207.454 222.84H224.814C232.001 222.84 237.554 224.24 241.474 227.04C245.441 229.84 247.424 233.76 247.424 238.8C247.424 241.973 246.444 244.75 244.484 247.13C242.571 249.51 239.934 251.353 236.574 252.66C233.261 253.92 229.574 254.55 225.514 254.55H222.574V271H207.454V222.84ZM225.584 244.82C228.058 244.82 229.971 244.307 231.324 243.28C232.678 242.253 233.354 240.76 233.354 238.8C233.354 236.84 232.678 235.37 231.324 234.39C230.018 233.41 228.104 232.92 225.584 232.92H222.574V244.68C223.508 244.773 224.511 244.82 225.584 244.82Z" fill="white"></path>
    <rect x="132" y="59" width="80" height="110" rx="3" fill="white"></rect>
    <circle cx="172.5" cy="85.5" r="10" stroke="black" stroke-width="5"></circle>
    <circle cx="172.5" cy="132.5" r="5" stroke="black" stroke-width="5"></circle>
    <circle cx="172" cy="133" r="22.5" stroke="black" stroke-width="5"></circle>
    <path d="M244 108C253.055 130.951 247.773 150.896 244 158" stroke="white" stroke-width="5" stroke-linecap="round"></path>
    <path d="M226 115C232.339 131.066 228.641 145.027 226 150" stroke="white" stroke-width="5" stroke-linecap="round"></path>
    <path d="M118.5 115C112.161 131.066 115.859 145.027 118.5 150" stroke="white" stroke-width="5" stroke-linecap="round"></path>
    <path d="M100 108C90.9445 130.951 96.2269 150.896 100 158" stroke="white" stroke-width="5" stroke-linecap="round"></path>
  </symbol>
</svg>
