<svg width="0" height="0" class="hidden">
  <symbol xmlns="http://www.w3.org/2000/svg" viewBox="0 0 98 96" id="github-mark-white">
    <path fill-rule="evenodd" clip-rule="evenodd" d="M48.854 0C21.839 0 0 22 0 49.217c0 21.756 13.993 40.172 33.405 46.69 2.427.49 3.316-1.059 3.316-2.362 0-1.141-.08-5.052-.08-9.127-13.59 2.934-16.42-5.867-16.42-5.867-2.184-5.704-5.42-7.17-5.42-7.17-4.448-3.015.324-3.015.324-3.015 4.934.326 7.523 5.052 7.523 5.052 4.367 7.496 11.404 5.378 14.235 4.074.404-3.178 1.699-5.378 3.074-6.6-10.839-1.141-22.243-5.378-22.243-24.283 0-5.378 1.94-9.778 5.014-13.2-.485-1.222-2.184-6.275.486-13.038 0 0 4.125-1.304 13.426 5.052a46.97 46.97 0 0 1 12.214-1.63c4.125 0 8.33.571 12.213 1.63 9.302-6.356 13.427-5.052 13.427-5.052 2.67 6.763.97 11.816.485 13.038 3.155 3.422 5.015 7.822 5.015 13.2 0 18.905-11.404 23.06-22.324 24.283 1.78 1.548 3.316 4.481 3.316 9.126 0 6.6-.08 11.897-.08 13.526 0 1.304.89 2.853 3.316 2.364 19.412-6.52 33.405-24.935 33.405-46.691C97.707 22 75.788 0 48.854 0z"></path>
  </symbol>
  <symbol id="rss-logo" xmlns="http://www.w3.org/2000/svg" xmlns:xlink="http://www.w3.org/1999/xlink" viewBox="0 0 552.8 205.3">
    <title>rs_school_js</title>
    <path d="M285.4 68l26.3-1.7c.6 4.3 1.7 7.5 3.5 9.8 2.9 3.6 6.9 5.4 12.2 5.4 3.9 0 7-.9 9.1-2.8 2-1.5 3.2-3.9 3.2-6.4 0-2.4-1.1-4.7-3-6.2-2-1.8-6.7-3.6-14.1-5.2-12.1-2.7-20.8-6.3-25.9-10.9-5.1-4.3-8-10.6-7.8-17.3 0-4.6 1.4-9.2 4-13 3-4.3 7.1-7.7 12-9.6 5.3-2.3 12.7-3.5 22-3.5 11.4 0 20.1 2.1 26.1 6.4 6 4.2 9.6 11 10.7 20.3l-26 1.5c-.7-4-2.1-6.9-4.4-8.8s-5.3-2.8-9.2-2.8c-3.2 0-5.6.7-7.2 2-1.5 1.2-2.5 3-2.4 5 0 1.5.8 2.9 2 3.8 1.3 1.2 4.4 2.3 9.3 3.3 12.1 2.6 20.7 5.2 26 7.9 5.3 2.7 9.1 6 11.4 9.9 2.4 4 3.6 8.6 3.5 13.3 0 5.6-1.6 11.2-4.8 15.9-3.3 4.9-7.9 8.7-13.3 11-5.7 2.5-12.9 3.8-21.5 3.8-15.2 0-25.7-2.9-31.6-8.8S286.1 77 285.4 68zM6.3 97.6V8.2h46.1c8.5 0 15.1.7 19.6 2.2 4.4 1.4 8.3 4.3 10.9 8.2 2.9 4.3 4.3 9.3 4.2 14.5.3 8.8-4.2 17.2-11.9 21.6-3 1.7-6.3 2.9-9.7 3.5 2.5.7 5 1.9 7.2 3.3 1.7 1.4 3.1 3 4.4 4.7 1.5 1.7 2.8 3.6 3.9 5.6l13.4 25.9H63L48.2 70.2c-1.9-3.5-3.5-5.8-5-6.9-2-1.4-4.4-2.1-6.8-2.1H34v36.3H6.3zM34 44.4h11.7c2.5-.2 4.9-.6 7.3-1.2 1.8-.3 3.4-1.3 4.5-2.8 2.7-3.6 2.3-8.7-1-11.8-1.8-1.5-5.3-2.3-10.3-2.3H34v18.1zM0 174.2l26.3-1.7c.6 4.3 1.7 7.5 3.5 9.8 2.8 3.6 6.9 5.5 12.2 5.5 3.9 0 7-.9 9.1-2.8 2-1.6 3.2-3.9 3.2-6.4 0-2.4-1.1-4.7-3-6.2-2-1.8-6.7-3.6-14.2-5.2-12.1-2.7-20.8-6.3-25.9-10.9-5.1-4.3-8-10.6-7.8-17.3 0-4.6 1.4-9.2 4-13 3-4.3 7.1-7.7 12-9.6 5.3-2.3 12.7-3.5 22-3.5 11.4 0 20.1 2.1 26.1 6.4s9.5 11 10.6 20.3l-26 1.5c-.7-4-2.1-6.9-4.4-8.8-2.2-1.9-5.3-2.8-9.2-2.7-3.2 0-5.6.7-7.2 2.1-1.6 1.2-2.5 3-2.4 5 0 1.5.8 2.9 2 3.8 1.3 1.2 4.4 2.3 9.3 3.3 12.1 2.6 20.7 5.2 26 7.9 5.3 2.7 9.1 6 11.4 9.9 2.4 4 3.6 8.6 3.6 13.2 0 5.6-1.7 11.1-4.8 15.8-3.3 4.9-7.9 8.7-13.3 11-5.7 2.5-12.9 3.8-21.5 3.8-15.2 0-25.7-2.9-31.6-8.8-5.9-6-9.2-13.4-10-22.4z"></path>
    <path d="M133 167.2l24.2 7.3c-1.3 6.1-4 11.9-7.7 17-3.4 4.5-7.9 8-13 10.3-5.2 2.3-11.8 3.5-19.8 3.5-9.7 0-17.7-1.4-23.8-4.2-6.2-2.8-11.5-7.8-16-14.9-4.5-7.1-6.7-16.2-6.7-27.3 0-14.8 3.9-26.2 11.8-34.1s19-11.9 33.4-11.9c11.3 0 20.1 2.3 26.6 6.8 6.4 4.6 11.2 11.6 14.4 21l-24.4 5.4c-.6-2.1-1.5-4.2-2.7-6-1.5-2.1-3.4-3.7-5.7-4.9-2.3-1.2-4.9-1.7-7.5-1.7-6.3 0-11.1 2.5-14.4 7.6-2.5 3.7-3.8 9.6-3.8 17.6 0 9.9 1.5 16.7 4.5 20.4 3 3.7 7.2 5.5 12.7 5.5 5.3 0 9.3-1.5 12-4.4 2.7-3.1 4.7-7.4 5.9-13zm56.5-52.8h27.6v31.3h30.2v-31.3h27.8v89.4h-27.8v-36.2h-30.2v36.2h-27.6v-89.4z"></path>
    <path d="M271.3 159.1c0-14.6 4.1-26 12.2-34.1 8.1-8.1 19.5-12.2 34-12.2 14.9 0 26.3 4 34.4 12S364 144 364 158.4c0 10.5-1.8 19-5.3 25.7-3.4 6.6-8.7 12-15.2 15.6-6.7 3.7-15 5.6-24.9 5.6-10.1 0-18.4-1.6-25-4.8-6.8-3.4-12.4-8.7-16.1-15.2-4.1-7-6.2-15.7-6.2-26.2zm27.6.1c0 9 1.7 15.5 5 19.5 3.3 3.9 7.9 5.9 13.7 5.9 5.9 0 10.5-1.9 13.8-5.8s4.9-10.8 4.9-20.8c0-8.4-1.7-14.6-5.1-18.4-3.4-3.9-8-5.8-13.8-5.8-5.1-.2-10 2-13.4 5.9-3.4 3.9-5.1 10.4-5.1 19.5zm93.4-.1c0-14.6 4.1-26 12.2-34.1 8.1-8.1 19.5-12.2 34-12.2 14.9 0 26.4 4 34.4 12S485 144 485 158.4c0 10.5-1.8 19-5.3 25.7-3.4 6.6-8.7 12-15.2 15.6-6.7 3.7-15 5.6-24.9 5.6-10.1 0-18.4-1.6-25-4.8-6.8-3.4-12.4-8.7-16.1-15.2-4.1-7-6.2-15.7-6.2-26.2zm27.6.1c0 9 1.7 15.5 5 19.5 3.3 3.9 7.9 5.9 13.7 5.9 5.9 0 10.5-1.9 13.8-5.8 3.3-3.9 4.9-10.8 4.9-20.8 0-8.4-1.7-14.6-5.1-18.4-3.4-3.9-8-5.8-13.8-5.8-5.1-.2-10.1 2-13.4 5.9-3.4 3.9-5.1 10.4-5.1 19.5z"></path>
    <path d="M482.1 114.4h27.6v67.4h43.1v22H482v-89.4z"></path>
    <ellipse transform="rotate(-37.001 420.46 67.88)" cx="420.5" cy="67.9" rx="63" ry="51.8"></ellipse>
    <defs>
      <ellipse id="SVGID_1_" transform="rotate(-37.001 420.46 67.88)" cx="420.5" cy="67.9" rx="63" ry="51.8"></ellipse>
    </defs>
    <clipPath id="SVGID_2_">
      <use xlink:href="#SVGID_1_" overflow="visible"></use>
    </clipPath>
    <g>
      <path transform="rotate(-37.001 420.82 68.353)" d="M330.9-14.2h179.8v165.1H330.9z"></path>
      <g id="Layer_2_1_">
        <defs>
          <path id="SVGID_3_" transform="rotate(-37.001 420.82 68.353)" d="M330.9-14.2h179.8v165.1H330.9z"></path>
        </defs>
        <clipPath id="SVGID_4_">
          <use xlink:href="#SVGID_3_" overflow="visible"></use>
        </clipPath>
        <g id="Layer_1-2">
          <ellipse transform="rotate(-37.001 420.46 67.88)" cx="420.5" cy="67.9" rx="63" ry="51.8"></ellipse>
          <defs>
            <ellipse id="SVGID_5_" transform="rotate(-37.001 420.46 67.88)" cx="420.5" cy="67.9" rx="63" ry="51.8"></ellipse>
          </defs>
          <clipPath id="SVGID_6_">
            <use xlink:href="#SVGID_5_" overflow="visible"></use>
          </clipPath>
          <g>
            <path transform="rotate(-37 420.799 68.802)" d="M357.8 17h125.9v103.7H357.8z"></path>
            <defs>
              <path id="SVGID_7_" transform="rotate(-37 420.799 68.802)" d="M357.8 17h125.9v103.7H357.8z"></path>
            </defs>
            <clipPath id="SVGID_8_">
              <use xlink:href="#SVGID_7_" overflow="visible"></use>
            </clipPath>
            <g>
              <ellipse transform="rotate(-37.001 420.46 67.88)" cx="420.5" cy="67.9" rx="63" ry="51.8"></ellipse>
            </g>
            <path transform="rotate(-37 420.799 68.802)" d="M357.8 17h125.9v103.7H357.8z"></path>
            <ellipse transform="rotate(-37.001 420.46 67.88)" cx="420.5" cy="67.9" rx="63" ry="51.8"></ellipse>
            <path transform="rotate(-37 420.799 68.802)" d="M357.8 17h125.9v103.7H357.8z"></path>
            <defs>
              <path id="SVGID_9_" transform="rotate(-37 420.799 68.802)" d="M357.8 17h125.9v103.7H357.8z"></path>
            </defs>
            <clipPath id="SVGID_10_">
              <use xlink:href="#SVGID_9_" overflow="visible"></use>
            </clipPath>
            <g>
              <ellipse transform="rotate(-37.001 420.46 67.88)" cx="420.5" cy="67.9" rx="63" ry="51.8"></ellipse>
            </g>
            <path transform="rotate(-37 420.799 68.802)" d="M357.8 17h125.9v103.7H357.8z"></path>
            <path transform="rotate(-37.001 420.82 68.353)" d="M330.9-14.2h179.8v165.1H330.9z"></path>
          </g>
          <ellipse transform="rotate(-37.001 420.46 67.88)" cx="420.5" cy="67.9" rx="63" ry="51.8"></ellipse>
          <path d="M392.4 61.3l10-7 12.3 17.5c2.1 2.8 3.7 5.8 4.9 9.1.7 2.5.5 5.2-.5 7.6-1.3 3-3.4 5.5-6.2 7.3-3.3 2.3-6.1 3.6-8.5 4-2.3.4-4.7 0-6.9-1-2.4-1.2-4.5-2.9-6.1-5.1l8.6-8c.7 1.1 1.6 2.1 2.6 2.9.7.5 1.5.8 2.4.8.7 0 1.4-.3 1.9-.7 1-.6 1.7-1.8 1.6-3-.3-1.7-1-3.4-2.1-4.7l-14-19.7zm30 11.1l9.1-7.2c1 1.2 2.3 2.1 3.7 2.6 2 .6 4.1.2 5.8-1.1 1.2-.8 2.2-1.9 2.6-3.3.6-1.8-.4-3.8-2.2-4.4-.3-.1-.6-.2-.9-.2-1.2-.1-3.3.4-6.4 1.7-5.1 2.1-9.1 2.9-12.1 2.6-2.9-.3-5.6-1.8-7.2-4.3-1.2-1.7-1.8-3.7-1.9-5.7 0-2.3.6-4.6 1.9-6.5 1.9-2.7 4.2-5 7-6.8 4.2-2.9 7.9-4.3 11.1-4.3 3.2 0 6.2 1.5 9 4.6l-9 7.1c-1.8-2.3-5.2-2.8-7.5-1l-.3.3c-1 .6-1.7 1.5-2.1 2.6-.3.8-.1 1.7.4 2.4.4.5 1 .9 1.7.9.8.1 2.2-.3 4.2-1.2 5-2.1 8.8-3.3 11.4-3.7 2.2-.4 4.5-.2 6.6.7 1.9.8 3.5 2.2 4.6 3.9 1.4 2 2.2 4.4 2.3 6.9.1 2.6-.6 5.1-2 7.3-1.8 2.7-4.1 5-6.8 6.8-5.5 3.8-10 5.4-13.6 4.8-3.9-.6-7.1-2.6-9.4-5.5z"></path>
        </g>
      </g>
    </g>
  </symbol>
  <symbol version="1.1" id="musical-note" xmlns="http://www.w3.org/2000/svg" xmlns:xlink="http://www.w3.org/1999/xlink" xml:space="preserve" viewBox="0 0 512 512">
    <g>
      <g>
        <path d="M503.319,5.939c-5.506-4.705-12.783-6.767-19.958-5.635L169.555,49.852c-12.04,1.901-20.909,12.28-20.909,24.47v99.097
			v156.903H99.097C44.455,330.323,0,371.073,0,421.161C0,471.25,44.455,512,99.097,512c54.642,0,99.097-40.75,99.097-90.839v-66.065
			V194.588l264.258-41.725v136.169h-49.548c-54.642,0-99.097,40.75-99.097,90.839s44.455,90.839,99.097,90.839
			S512,429.959,512,379.871v-66.065V123.871V24.774C512,17.529,508.827,10.646,503.319,5.939z"></path>
      </g>
    </g>
  </symbol>
    <symbol version="1.1" xmlns="http://www.w3.org/2000/svg" xmlns:xlink="http://www.w3.org/1999/xlink" x="0px" y="0px" enable-background="new 0 0 1000 1000" xml:space="preserve" viewBox="0 0 1000 1000" id="vinyl-icon">
    <g>
      <g transform="translate(0.000000,511.000000) scale(0.100000,-0.100000)">
        <path d="M352.9,3916c-84.3-24.9-206.9-151.4-231.8-241.4C105.7,3624.8,100,2502.1,100,84.1v-3517.7l44.1-84.3c24.9-46,82.4-109.2,126.5-141.8l82.4-57.5h4650h4650l78.6,51.7c42.1,28.8,97.7,84.3,122.6,124.5l46,72.8V109v3575.1l-57.5,82.4c-30.6,44.1-95.8,101.5-141.8,126.5l-84.3,44.1l-4600.2-1.9C2178.8,3935.2,391.2,3927.5,352.9,3916z M9629.9,3755.1c34.5-17.2,76.6-53.6,93.9-84.3c30.7-51.7,32.6-291.2,32.6-3556c0-3879.8,9.6-3594.3-124.5-3657.5c-57.5-26.8-511.6-30.6-4636.6-30.6c-4199.7,0-4577.2,1.9-4627,30.6c-28.7,17.2-67.1,55.6-84.3,84.3c-28.7,49.8-30.7,348.7-30.7,3554.1c0,3870.2-9.6,3592.4,120.7,3657.5c55.6,26.8,521.1,30.7,4627,30.7C9043.6,3783.8,9576.2,3780,9629.9,3755.1z"></path>
        <g class="rotate">
          <path d="M3564,3073c-475.1-55.6-984.8-260.6-1417.8-572.9C1991,2389,1648.1,2046,1536.9,1890.9C1061.8,1231.8,870.2,492.2,971.7-281.8c88.1-668.7,375.5-1247.3,862.2-1730.1c287.4-287.4,570.9-479,931.1-632.3c979-415.8,2096-279.7,2960.1,360.2c170.5,126.5,469.4,425.3,595.9,595.9c471.3,634.2,672.5,1408.2,570.9,2180.3c-67.1,511.5-249.1,959.9-565.2,1398.6c-113,157.1-434.9,480.9-601.6,603.5C5100.6,2956.1,4336.1,3161.1,3564,3073z M4449.2,2892.9c1030.8-201.2,1862.3-935,2180.3-1925.5C6731,649.3,6756,476.9,6756,105.2c0-371.7-24.9-544.1-126.5-862.2c-279.7-871.7-963.7-1555.8-1835.5-1835.5c-318-101.5-490.5-126.5-862.2-126.5s-544.1,24.9-862.2,126.5C2196-2312.7,1514-1630.6,1234.2-757c-99.6,314.2-126.5,490.5-126.5,862.2c0,371.7,24.9,542.2,126.5,862.2C1514,1841,2196,2523.1,3069.7,2802.8c164.8,53.7,394.7,103.5,574.8,126.5C3780.5,2946.5,4292.1,2923.6,4449.2,2892.9z"></path>
          <path d="M3608.1,2689.8c-1107.4-145.6-1998.3-973.3-2226.3-2065.4c-21.1-99.6-40.2-266.3-42.1-371.7c-3.8-162.9,1.9-193.5,30.6-212.7c23-15.3,42.2-15.3,67.1,0c24.9,17.3,36.4,61.3,46,201.2c47.9,643.8,300.8,1187.9,751,1622.8c279.7,270.1,580.5,452.2,938.8,569c228,72.8,375.5,101.5,622.7,120.7c139.9,9.6,183.9,21.1,201.2,47.9c15.3,23,15.3,42.2,0,67.1C3972.1,2707,3807.3,2716.6,3608.1,2689.8z"></path>
          <path d="M3615.7,2306.6c-298.9-44.1-680.2-193.5-933.1-364c-153.3-105.4-413.8-354.4-534.5-515.4c-124.5-162.9-293.1-503.9-352.5-712.7c-53.6-193.5-92-450.2-82.4-569c5.7-97.7,51.7-139.9,107.3-105.4c24.9,17.3,36.4,61.3,47.9,201.2c30.7,390.8,189.7,814.3,413.8,1111.2c356.4,467.5,912,768.3,1513.6,816.2c139.9,11.5,183.9,23,201.2,49.8c15.3,23,15.3,42.2,0,67.1C3972.1,2323.9,3801.6,2333.4,3615.7,2306.6z"></path>
          <path d="M3611.9,1915.8c-779.8-143.7-1385.2-770.2-1500.2-1553.8c-26.8-189.7-19.2-295.1,24.9-321.9c65.1-42.1,97.7,7.7,113,172.5c38.3,431.1,203.1,789.4,494.3,1080.6c291.2,291.2,649.5,456,1080.6,494.3c113,9.6,157.1,21.1,172.4,47.9C4058.3,1931.1,3887.8,1967.5,3611.9,1915.8z"></path>
          <path d="M3644.5,1532.6c-588.2-128.4-1021.2-565.2-1140-1151.5c-38.3-187.8-32.6-312.3,15.3-341c63.2-40.2,97.7,7.7,113,151.4c19.2,185.8,49.8,308.5,120.7,459.8C2881.9,931,3085,1137.9,3366.7,1272c166.7,82.4,281.6,113,479,132.2c93.9,9.6,136,23,151.4,47.9C4056.4,1547.9,3889.7,1586.2,3644.5,1532.6z"></path>
          <path d="M3711.5,1155.1c-172.4-30.6-396.6-155.2-534.5-295c-572.9-570.9-335.3-1517.4,448.3-1781.8c147.5-49.8,467.5-49.8,613.1,0c362.1,122.6,597.8,358.3,720.4,720.4c49.8,145.6,49.8,465.6,0,613.1c-101.5,300.8-293.1,525-555.6,651.4C4175.2,1172.4,3954.9,1201.1,3711.5,1155.1z M4152.2,996.1c329.5-86.2,584.4-342.9,670.6-674.4c124.5-477.1-180.1-979-670.6-1107.4C3671.3-910.2,3169.3-605.6,3041-115.1C2870.4,542,3495,1166.6,4152.2,996.1z"></path>
          <path d="M5259.6,158.9c-11.5-13.4-24.9-86.2-32.6-162.9c-26.8-304.6-160.9-593.9-377.4-808.5c-216.5-216.5-502-348.7-820-381.3c-155.2-15.3-203.1-49.8-162.9-113c28.7-47.9,153.3-53.7,341-15.3c590.1,118.8,1028.9,555.6,1149.6,1143.8c36.4,176.3,40.2,304.6,7.7,337.2C5334.3,189.5,5282.6,187.6,5259.6,158.9z"></path>
          <path d="M5642.8,158.9c-11.5-13.4-24.9-93.9-32.6-178.2c-32.6-406.2-203.1-776-490.5-1063.3c-289.3-289.3-653.3-456-1080.6-494.3c-164.8-15.3-214.6-47.9-172.4-113c19.2-28.7,47.9-34.5,191.6-30.7c218.4,5.8,429.2,59.4,657.2,168.6c205,99.6,325.7,182,486.6,333.4c316.1,298.9,528.8,747.2,563.3,1184c7.6,115,3.8,166.7-13.4,187.8C5723.3,187.6,5667.7,191.4,5642.8,158.9z"></path>
          <path d="M6026,158.9c-11.5-13.4-24.9-105.4-32.6-203.1c-24.9-344.9-159-730-356.3-1017.4c-344.9-507.7-935-846.8-1569.2-896.7c-139.9-11.5-183.9-23-201.2-47.9c-34.5-55.6,7.7-101.5,105.4-107.3c118.8-9.6,375.5,28.7,569,82.4c208.8,59.4,549.9,228,712.7,352.5c160.9,120.7,410,381.3,515.4,534.5c113,166.7,241.4,442.6,297,638c80.4,279.7,113,616.9,65.1,664.8C6100.7,189.5,6049,187.6,6026,158.9z"></path>
          <path d="M6407.3,158.9c-13.4-13.4-23-67.1-23-118.8c0-53.6-13.4-180.1-28.7-279.7c-78.6-517.3-291.2-958-645.7-1333.5c-436.8-459.8-988.6-720.4-1641.9-770.2c-139.9-9.6-183.9-21.1-201.2-46c-15.3-24.9-15.3-44.1,0-67.1c19.2-28.7,49.8-34.5,208.8-30.6c101.5,1.9,256.7,17.2,342.9,34.5c1164.9,229.9,2029,1207,2111.4,2391.1c9.6,137.9,7.7,191.6-11.5,214.6C6489.6,187.6,6439.8,191.4,6407.3,158.9z"></path>
        </g>
        <path d="M3813.1,304.5c-147.5-78.6-143.7-310.4,3.8-398.5c195.4-115,429.2,118.8,314.2,314.2C4066,327.5,3924.2,365.8,3813.1,304.5z M3989.3,153.1c49.8-61.3-24.9-155.2-90.1-113.1c-67.1,42.2-44.1,141.8,32.6,141.8C3951,181.9,3975.9,168.4,3989.3,153.1z"></path>
        <path d="M8093.3,2917.8c-32.6-32.6-32.6-687.8,0-720.4c13.4-13.4,47.9-23,76.6-23h53.6V641.7V-891.1H8168c-30.6,0-63.2-11.5-74.7-24.9c-11.5-11.5-38.3-312.3-61.3-664.8c-40.2-613.1-40.2-639.9-7.7-664.8c47.9-34.5,503.9-34.5,551.8,0c32.6,24.9,32.6,51.7-5.8,664.8c-24.9,369.8-49.8,649.5-63.2,664.8c-11.5,13.4-44.1,24.9-74.7,24.9h-55.6V641.7v1532.7h53.6c28.7,0,63.2,9.6,76.6,23c32.6,32.6,32.6,687.8,0,720.4C8476.5,2948.5,8123.9,2948.5,8093.3,2917.8z M8376.8,2557.6v-229.9h-76.6h-76.6v229.9v229.9h76.6h76.6V2557.6z M8384.5-1086.5c5.7-24.9,19.2-212.7,30.7-417.7c11.5-205,24.9-427.2,30.6-492.4l11.5-120.7H8304h-155.2l7.7,63.2c5.7,32.6,17.2,216.5,28.7,406.2c11.5,189.7,24.9,402.3,32.6,475.1l11.5,128.4h72.8C8363.4-1044.3,8376.8-1052,8384.5-1086.5z"></path>
        <path d="M818.5-2603.9c-193.5-84.3-239.5-341-88.1-492.4c124.5-124.5,300.8-124.5,425.3,0C1393.3-2858.7,1126.9-2469.8,818.5-2603.9z M1048.4-2778.3c95.8-93.9,28.7-258.7-105.4-258.7c-78.6,0-153.3,74.7-153.3,153.3c0,78.5,74.7,153.3,153.3,153.3C979.4-2730.4,1019.6-2747.6,1048.4-2778.3z"></path>
        <path d="M7409.3-2603.9c-193.5-84.3-239.5-341-88.1-492.4c124.5-124.5,300.8-124.5,425.3,0C7984.1-2858.7,7717.7-2469.8,7409.3-2603.9z M7639.2-2778.3c95.8-93.9,28.7-258.7-105.4-258.7c-78.5,0-153.3,74.7-153.3,153.3c0,78.5,74.7,153.3,153.3,153.3C7570.2-2730.4,7610.5-2747.6,7639.2-2778.3z"></path>
        <path d="M8175.7-2603.9c-193.5-84.3-239.5-341-88.1-492.4c124.5-124.5,300.8-124.5,425.3,0C8750.4-2858.7,8484.1-2469.8,8175.7-2603.9z M8405.6-2778.3c95.8-93.9,28.7-258.7-105.4-258.7c-78.5,0-153.3,74.7-153.3,153.3c0,78.5,74.7,153.3,153.3,153.3C8336.6-2730.4,8376.8-2747.6,8405.6-2778.3z"></path>
        <path d="M8942-2603.9c-193.5-84.3-239.5-341-88.1-492.4c124.5-124.5,300.8-124.5,425.3,0C9516.8-2858.7,9250.5-2469.8,8942-2603.9z M9171.9-2778.3c95.8-93.9,28.7-258.7-105.4-258.7c-78.5,0-153.3,74.7-153.3,153.3c0,78.5,74.7,153.3,153.3,153.3C9103-2730.4,9143.2-2747.6,9171.9-2778.3z"></path>
      </g>
    </g>
  </symbol>
  <symbol fill="none" xmlns="http://www.w3.org/2000/svg" viewBox="0 0 338 336" id="app-logo">
    <circle cx="163.5" cy="172.5" r="161" stroke="white" stroke-width="5"></circle>
    <circle cx="174.5" cy="163.5" r="163" stroke="white"></circle>
    <path d="M119.58 216.48C115.82 216.48 113.52 214.74 112.68 211.26L111.93 208.17H110.52V216H103.95V195.36H113.04C114.76 195.36 116.27 195.62 117.57 196.14C118.89 196.64 119.91 197.35 120.63 198.27C121.35 199.19 121.71 200.25 121.71 201.45C121.71 202.79 121.38 203.92 120.72 204.84C120.08 205.74 119.08 206.48 117.72 207.06C117.86 207.82 118.02 208.51 118.2 209.13C118.44 209.89 118.77 210.42 119.19 210.72C119.61 211.02 120.22 211.17 121.02 211.17C121.3 211.17 121.74 211.13 122.34 211.05V215.94C121.4 216.3 120.48 216.48 119.58 216.48ZM111.66 203.97C113.14 203.97 114.18 203.81 114.78 203.49C115.4 203.15 115.71 202.58 115.71 201.78C115.71 201.1 115.46 200.61 114.96 200.31C114.46 199.99 113.67 199.83 112.59 199.83H110.52V203.97H111.66ZM132.537 216.48C129.717 216.48 127.337 215.96 125.397 214.92L126.897 210.27C128.957 211.01 130.797 211.38 132.417 211.38C133.297 211.38 133.937 211.28 134.337 211.08C134.757 210.86 134.967 210.54 134.967 210.12C134.967 209.84 134.857 209.6 134.637 209.4C134.417 209.18 133.977 208.94 133.317 208.68C132.657 208.42 131.667 208.1 130.347 207.72C128.727 207.24 127.467 206.46 126.567 205.38C125.667 204.28 125.217 203.02 125.217 201.6C125.217 199.4 125.937 197.74 127.377 196.62C128.837 195.48 130.797 194.91 133.257 194.91C134.537 194.91 135.797 195.05 137.037 195.33C138.277 195.59 139.377 195.98 140.337 196.5L138.717 201.03C137.597 200.65 136.617 200.38 135.777 200.22C134.957 200.04 134.157 199.95 133.377 199.95C132.057 199.95 131.397 200.31 131.397 201.03C131.397 201.39 131.607 201.7 132.027 201.96C132.467 202.2 133.357 202.51 134.697 202.89C136.797 203.45 138.387 204.31 139.467 205.47C140.547 206.61 141.087 207.98 141.087 209.58C141.087 211.8 140.367 213.51 138.927 214.71C137.487 215.89 135.357 216.48 132.537 216.48ZM151.997 195.36H158.237L163.397 205.38L168.437 195.36H174.677V216H168.437V204.99L164.627 212.19H162.077L158.237 204.99V216H151.997V195.36ZM189.868 216.48C187.888 216.48 186.118 216.1 184.558 215.34C183.018 214.58 181.818 213.52 180.958 212.16C180.098 210.78 179.668 209.21 179.668 207.45V195.36H186.448V207.45C186.448 208.65 186.738 209.55 187.318 210.15C187.898 210.75 188.748 211.05 189.868 211.05C190.988 211.05 191.838 210.75 192.418 210.15C192.998 209.53 193.288 208.63 193.288 207.45V195.36H200.068V207.45C200.068 209.21 199.638 210.78 198.778 212.16C197.918 213.52 196.708 214.58 195.148 215.34C193.608 216.1 191.848 216.48 189.868 216.48ZM211.424 216.48C208.604 216.48 206.224 215.96 204.284 214.92L205.784 210.27C207.844 211.01 209.684 211.38 211.304 211.38C212.184 211.38 212.824 211.28 213.224 211.08C213.644 210.86 213.854 210.54 213.854 210.12C213.854 209.84 213.744 209.6 213.524 209.4C213.304 209.18 212.864 208.94 212.204 208.68C211.544 208.42 210.554 208.1 209.234 207.72C207.614 207.24 206.354 206.46 205.454 205.38C204.554 204.28 204.104 203.02 204.104 201.6C204.104 199.4 204.824 197.74 206.264 196.62C207.724 195.48 209.684 194.91 212.144 194.91C213.424 194.91 214.684 195.05 215.924 195.33C217.164 195.59 218.264 195.98 219.224 196.5L217.604 201.03C216.484 200.65 215.504 200.38 214.664 200.22C213.844 200.04 213.044 199.95 212.264 199.95C210.944 199.95 210.284 200.31 210.284 201.03C210.284 201.39 210.494 201.7 210.914 201.96C211.354 202.2 212.244 202.51 213.584 202.89C215.684 203.45 217.274 204.31 218.354 205.47C219.434 206.61 219.974 207.98 219.974 209.58C219.974 211.8 219.254 213.51 217.814 214.71C216.374 215.89 214.244 216.48 211.424 216.48ZM224.038 195.36H230.968V216H224.038V195.36ZM245.848 216.48C243.848 216.48 242.028 216.01 240.388 215.07C238.768 214.11 237.478 212.81 236.518 211.17C235.578 209.51 235.108 207.68 235.108 205.68C235.108 203.64 235.568 201.8 236.488 200.16C237.408 198.52 238.668 197.24 240.268 196.32C241.868 195.38 243.668 194.91 245.668 194.91C246.748 194.91 247.808 195.04 248.848 195.3C249.888 195.56 250.778 195.93 251.518 196.41L250.708 201.06C249.268 200.52 247.968 200.25 246.808 200.25C245.208 200.25 243.978 200.72 243.118 201.66C242.258 202.58 241.828 203.91 241.828 205.65C241.828 207.35 242.278 208.68 243.178 209.64C244.098 210.58 245.368 211.05 246.988 211.05C247.608 211.05 248.188 210.99 248.728 210.87C249.268 210.75 249.928 210.53 250.708 210.21L251.548 214.95C249.808 215.97 247.908 216.48 245.848 216.48Z" fill="white"></path>
    <path d="M119.65 222.84H140.93L154.86 271H138.41L136.59 261.76H124.13L122.1 271H106.35L119.65 222.84ZM134.91 253.15L130.36 232.08L125.6 253.15H134.91ZM160.745 222.84H178.105C185.292 222.84 190.845 224.24 194.765 227.04C198.732 229.84 200.715 233.76 200.715 238.8C200.715 241.973 199.735 244.75 197.775 247.13C195.862 249.51 193.225 251.353 189.865 252.66C186.552 253.92 182.865 254.55 178.805 254.55H175.865V271H160.745V222.84ZM178.875 244.82C181.349 244.82 183.262 244.307 184.615 243.28C185.969 242.253 186.645 240.76 186.645 238.8C186.645 236.84 185.969 235.37 184.615 234.39C183.309 233.41 181.395 232.92 178.875 232.92H175.865V244.68C176.799 244.773 177.802 244.82 178.875 244.82ZM207.454 222.84H224.814C232.001 222.84 237.554 224.24 241.474 227.04C245.441 229.84 247.424 233.76 247.424 238.8C247.424 241.973 246.444 244.75 244.484 247.13C242.571 249.51 239.934 251.353 236.574 252.66C233.261 253.92 229.574 254.55 225.514 254.55H222.574V271H207.454V222.84ZM225.584 244.82C228.058 244.82 229.971 244.307 231.324 243.28C232.678 242.253 233.354 240.76 233.354 238.8C233.354 236.84 232.678 235.37 231.324 234.39C230.018 233.41 228.104 232.92 225.584 232.92H222.574V244.68C223.508 244.773 224.511 244.82 225.584 244.82Z" fill="white"></path>
    <rect x="132" y="59" width="80" height="110" rx="3" fill="white"></rect>
    <circle cx="172.5" cy="85.5" r="10" stroke="black" stroke-width="5"></circle>
    <circle cx="172.5" cy="132.5" r="5" stroke="black" stroke-width="5"></circle>
    <circle cx="172" cy="133" r="22.5" stroke="black" stroke-width="5"></circle>
    <path d="M244 108C253.055 130.951 247.773 150.896 244 158" stroke="white" stroke-width="5" stroke-linecap="round"></path>
    <path d="M226 115C232.339 131.066 228.641 145.027 226 150" stroke="white" stroke-width="5" stroke-linecap="round"></path>
    <path d="M118.5 115C112.161 131.066 115.859 145.027 118.5 150" stroke="white" stroke-width="5" stroke-linecap="round"></path>
    <path d="M100 108C90.9445 130.951 96.2269 150.896 100 158" stroke="white" stroke-width="5" stroke-linecap="round"></path>
  </symbol>
  <symbol fill="none" xmlns="http://www.w3.org/2000/svg" viewBox="0 0 815 336" id="app-logo-large">
    <circle cx="160" cy="169" r="157.5" stroke="white" stroke-width="5"/>
    <circle cx="171" cy="160" r="159" stroke="white" stroke-width="2"/>
    <path d="M408.02 110.12C399.247 110.12 393.88 106.06 391.92 97.94L390.17 90.73H386.88V109H371.55V60.84H392.76C396.773 60.84 400.297 61.4467 403.33 62.66C406.41 63.8267 408.79 65.4833 410.47 67.63C412.15 69.7767 412.99 72.25 412.99 75.05C412.99 78.1767 412.22 80.8133 410.68 82.96C409.187 85.06 406.853 86.7867 403.68 88.14C404.007 89.9133 404.38 91.5233 404.8 92.97C405.36 94.7433 406.13 95.98 407.11 96.68C408.09 97.38 409.513 97.73 411.38 97.73C412.033 97.73 413.06 97.6367 414.46 97.45V108.86C412.267 109.7 410.12 110.12 408.02 110.12ZM389.54 80.93C392.993 80.93 395.42 80.5567 396.82 79.81C398.267 79.0167 398.99 77.6867 398.99 75.82C398.99 74.2333 398.407 73.09 397.24 72.39C396.073 71.6433 394.23 71.27 391.71 71.27H386.88V80.93H389.54ZM436.587 110.12C430.007 110.12 424.454 108.907 419.927 106.48L423.427 95.63C428.234 97.3567 432.527 98.22 436.307 98.22C438.36 98.22 439.854 97.9867 440.787 97.52C441.767 97.0067 442.257 96.26 442.257 95.28C442.257 94.6267 442 94.0667 441.487 93.6C440.974 93.0867 439.947 92.5267 438.407 91.92C436.867 91.3133 434.557 90.5667 431.477 89.68C427.697 88.56 424.757 86.74 422.657 84.22C420.557 81.6533 419.507 78.7133 419.507 75.4C419.507 70.2667 421.187 66.3933 424.547 63.78C427.954 61.12 432.527 59.79 438.267 59.79C441.254 59.79 444.194 60.1167 447.087 60.77C449.98 61.3767 452.547 62.2867 454.787 63.5L451.007 74.07C448.394 73.1833 446.107 72.5533 444.147 72.18C442.234 71.76 440.367 71.55 438.547 71.55C435.467 71.55 433.927 72.39 433.927 74.07C433.927 74.91 434.417 75.6333 435.397 76.24C436.424 76.8 438.5 77.5233 441.627 78.41C446.527 79.7167 450.237 81.7233 452.757 84.43C455.277 87.09 456.537 90.2867 456.537 94.02C456.537 99.2 454.857 103.19 451.497 105.99C448.137 108.743 443.167 110.12 436.587 110.12ZM478.659 60.84H493.219L505.259 84.22L517.019 60.84H531.579V109H517.019V83.31L508.129 100.11H502.179L493.219 83.31V109H478.659V60.84ZM565.36 110.12C560.74 110.12 556.61 109.233 552.97 107.46C549.376 105.687 546.576 103.213 544.57 100.04C542.563 96.82 541.56 93.1567 541.56 89.05V60.84H557.38V89.05C557.38 91.85 558.056 93.95 559.41 95.35C560.763 96.75 562.746 97.45 565.36 97.45C567.973 97.45 569.956 96.75 571.31 95.35C572.663 93.9033 573.34 91.8033 573.34 89.05V60.84H589.16V89.05C589.16 93.1567 588.156 96.82 586.15 100.04C584.143 103.213 581.32 105.687 577.68 107.46C574.086 109.233 569.98 110.12 565.36 110.12ZM613.989 110.12C607.409 110.12 601.856 108.907 597.329 106.48L600.829 95.63C605.636 97.3567 609.929 98.22 613.709 98.22C615.763 98.22 617.256 97.9867 618.189 97.52C619.169 97.0067 619.659 96.26 619.659 95.28C619.659 94.6267 619.403 94.0667 618.889 93.6C618.376 93.0867 617.349 92.5267 615.809 91.92C614.269 91.3133 611.959 90.5667 608.879 89.68C605.099 88.56 602.159 86.74 600.059 84.22C597.959 81.6533 596.909 78.7133 596.909 75.4C596.909 70.2667 598.589 66.3933 601.949 63.78C605.356 61.12 609.929 59.79 615.669 59.79C618.656 59.79 621.596 60.1167 624.489 60.77C627.383 61.3767 629.949 62.2867 632.189 63.5L628.409 74.07C625.796 73.1833 623.509 72.5533 621.549 72.18C619.636 71.76 617.769 71.55 615.949 71.55C612.869 71.55 611.329 72.39 611.329 74.07C611.329 74.91 611.819 75.6333 612.799 76.24C613.826 76.8 615.903 77.5233 619.029 78.41C623.929 79.7167 627.639 81.7233 630.159 84.43C632.679 87.09 633.939 90.2867 633.939 94.02C633.939 99.2 632.259 103.19 628.899 105.99C625.539 108.743 620.569 110.12 613.989 110.12ZM641.755 60.84H657.925V109H641.755V60.84ZM690.978 110.12C686.311 110.12 682.065 109.023 678.238 106.83C674.458 104.59 671.448 101.557 669.208 97.73C667.015 93.8567 665.918 89.5867 665.918 84.92C665.918 80.16 666.991 75.8667 669.138 72.04C671.285 68.2133 674.225 65.2267 677.958 63.08C681.691 60.8867 685.891 59.79 690.558 59.79C693.078 59.79 695.551 60.0933 697.978 60.7C700.405 61.3067 702.481 62.17 704.208 63.29L702.318 74.14C698.958 72.88 695.925 72.25 693.218 72.25C689.485 72.25 686.615 73.3467 684.608 75.54C682.601 77.6867 681.598 80.79 681.598 84.85C681.598 88.8167 682.648 91.92 684.748 94.16C686.895 96.3533 689.858 97.45 693.638 97.45C695.085 97.45 696.438 97.31 697.698 97.03C698.958 96.75 700.498 96.2367 702.318 95.49L704.278 106.55C700.218 108.93 695.785 110.12 690.978 110.12Z" fill="white"/>
    <path d="M398.2 141.92H446.84L478.68 252H441.08L436.92 230.88H408.44L403.8 252H367.8L398.2 141.92ZM433.08 211.2L422.68 163.04L411.8 211.2H433.08ZM490.525 141.92H530.205C546.632 141.92 559.325 145.12 568.285 151.52C577.352 157.92 581.885 166.88 581.885 178.4C581.885 185.653 579.645 192 575.165 197.44C570.792 202.88 564.765 207.093 557.085 210.08C549.512 212.96 541.085 214.4 531.805 214.4H525.085V252H490.525V141.92ZM531.965 192.16C537.618 192.16 541.992 190.987 545.085 188.64C548.178 186.293 549.725 182.88 549.725 178.4C549.725 173.92 548.178 170.56 545.085 168.32C542.098 166.08 537.725 164.96 531.965 164.96H525.085V191.84C527.218 192.053 529.512 192.16 531.965 192.16ZM595.681 141.92H635.361C651.788 141.92 664.481 145.12 673.441 151.52C682.508 157.92 687.041 166.88 687.041 178.4C687.041 185.653 684.801 192 680.321 197.44C675.948 202.88 669.921 207.093 662.241 210.08C654.668 212.96 646.241 214.4 636.961 214.4H630.241V252H595.681V141.92ZM637.121 192.16C642.775 192.16 647.148 190.987 650.241 188.64C653.335 186.293 654.881 182.88 654.881 178.4C654.881 173.92 653.335 170.56 650.241 168.32C647.255 166.08 642.881 164.96 637.121 164.96H630.241V191.84C632.375 192.053 634.668 192.16 637.121 192.16Z" fill="white"/>
    <rect x="116" y="75" width="110" height="170" rx="3" fill="white"/>
    <circle cx="171.5" cy="113.5" r="12.5" stroke="black" stroke-width="10"/>
    <path d="M177.81 189.5C177.81 193.875 174.491 197 170.905 197C167.318 197 164 193.875 164 189.5C164 185.125 167.318 182 170.905 182C174.491 182 177.81 185.125 177.81 189.5Z" stroke="black" stroke-width="10"/>
    <circle cx="171" cy="190" r="35" stroke="black" stroke-width="10"/>
    <path d="M262 150C280.111 186.721 269.546 218.634 262 230" stroke="white" stroke-width="5" stroke-linecap="round"/>
    <path d="M240 160C253.583 187.541 245.66 211.475 240 220" stroke="white" stroke-width="5" stroke-linecap="round"/>
    <path d="M79 150C60.889 186.721 71.4538 218.634 79 230" stroke="white" stroke-width="5" stroke-linecap="round"/>
    <path d="M101.5 160C87.9168 187.541 95.8403 211.475 101.5 220" stroke="white" stroke-width="5" stroke-linecap="round"/>
    <line x1="133.5" y1="245.5" x2="133.5" y2="250.5" stroke="white" stroke-width="5" stroke-linecap="round"/>
    <line x1="213.5" y1="245.5" x2="213.5" y2="250.5" stroke="white" stroke-width="5" stroke-linecap="round"/>
  </symbol>
    <symbol fill="none" xmlns="http://www.w3.org/2000/svg" viewBox="0 0 815 336" id="app-logo-large-dark">
    <circle cx="160" cy="169" r="157.5" stroke="black" stroke-width="5"/>
    <circle cx="171" cy="160" r="159" stroke="black" stroke-width="2"/>
    <path d="M408.02 110.12C399.247 110.12 393.88 106.06 391.92 97.94L390.17 90.73H386.88V109H371.55V60.84H392.76C396.773 60.84 400.297 61.4467 403.33 62.66C406.41 63.8267 408.79 65.4833 410.47 67.63C412.15 69.7767 412.99 72.25 412.99 75.05C412.99 78.1767 412.22 80.8133 410.68 82.96C409.187 85.06 406.853 86.7867 403.68 88.14C404.007 89.9133 404.38 91.5233 404.8 92.97C405.36 94.7433 406.13 95.98 407.11 96.68C408.09 97.38 409.513 97.73 411.38 97.73C412.033 97.73 413.06 97.6367 414.46 97.45V108.86C412.267 109.7 410.12 110.12 408.02 110.12ZM389.54 80.93C392.993 80.93 395.42 80.5567 396.82 79.81C398.267 79.0167 398.99 77.6867 398.99 75.82C398.99 74.2333 398.407 73.09 397.24 72.39C396.073 71.6433 394.23 71.27 391.71 71.27H386.88V80.93H389.54ZM436.587 110.12C430.007 110.12 424.454 108.907 419.927 106.48L423.427 95.63C428.234 97.3567 432.527 98.22 436.307 98.22C438.36 98.22 439.854 97.9867 440.787 97.52C441.767 97.0067 442.257 96.26 442.257 95.28C442.257 94.6267 442 94.0667 441.487 93.6C440.974 93.0867 439.947 92.5267 438.407 91.92C436.867 91.3133 434.557 90.5667 431.477 89.68C427.697 88.56 424.757 86.74 422.657 84.22C420.557 81.6533 419.507 78.7133 419.507 75.4C419.507 70.2667 421.187 66.3933 424.547 63.78C427.954 61.12 432.527 59.79 438.267 59.79C441.254 59.79 444.194 60.1167 447.087 60.77C449.98 61.3767 452.547 62.2867 454.787 63.5L451.007 74.07C448.394 73.1833 446.107 72.5533 444.147 72.18C442.234 71.76 440.367 71.55 438.547 71.55C435.467 71.55 433.927 72.39 433.927 74.07C433.927 74.91 434.417 75.6333 435.397 76.24C436.424 76.8 438.5 77.5233 441.627 78.41C446.527 79.7167 450.237 81.7233 452.757 84.43C455.277 87.09 456.537 90.2867 456.537 94.02C456.537 99.2 454.857 103.19 451.497 105.99C448.137 108.743 443.167 110.12 436.587 110.12ZM478.659 60.84H493.219L505.259 84.22L517.019 60.84H531.579V109H517.019V83.31L508.129 100.11H502.179L493.219 83.31V109H478.659V60.84ZM565.36 110.12C560.74 110.12 556.61 109.233 552.97 107.46C549.376 105.687 546.576 103.213 544.57 100.04C542.563 96.82 541.56 93.1567 541.56 89.05V60.84H557.38V89.05C557.38 91.85 558.056 93.95 559.41 95.35C560.763 96.75 562.746 97.45 565.36 97.45C567.973 97.45 569.956 96.75 571.31 95.35C572.663 93.9033 573.34 91.8033 573.34 89.05V60.84H589.16V89.05C589.16 93.1567 588.156 96.82 586.15 100.04C584.143 103.213 581.32 105.687 577.68 107.46C574.086 109.233 569.98 110.12 565.36 110.12ZM613.989 110.12C607.409 110.12 601.856 108.907 597.329 106.48L600.829 95.63C605.636 97.3567 609.929 98.22 613.709 98.22C615.763 98.22 617.256 97.9867 618.189 97.52C619.169 97.0067 619.659 96.26 619.659 95.28C619.659 94.6267 619.403 94.0667 618.889 93.6C618.376 93.0867 617.349 92.5267 615.809 91.92C614.269 91.3133 611.959 90.5667 608.879 89.68C605.099 88.56 602.159 86.74 600.059 84.22C597.959 81.6533 596.909 78.7133 596.909 75.4C596.909 70.2667 598.589 66.3933 601.949 63.78C605.356 61.12 609.929 59.79 615.669 59.79C618.656 59.79 621.596 60.1167 624.489 60.77C627.383 61.3767 629.949 62.2867 632.189 63.5L628.409 74.07C625.796 73.1833 623.509 72.5533 621.549 72.18C619.636 71.76 617.769 71.55 615.949 71.55C612.869 71.55 611.329 72.39 611.329 74.07C611.329 74.91 611.819 75.6333 612.799 76.24C613.826 76.8 615.903 77.5233 619.029 78.41C623.929 79.7167 627.639 81.7233 630.159 84.43C632.679 87.09 633.939 90.2867 633.939 94.02C633.939 99.2 632.259 103.19 628.899 105.99C625.539 108.743 620.569 110.12 613.989 110.12ZM641.755 60.84H657.925V109H641.755V60.84ZM690.978 110.12C686.311 110.12 682.065 109.023 678.238 106.83C674.458 104.59 671.448 101.557 669.208 97.73C667.015 93.8567 665.918 89.5867 665.918 84.92C665.918 80.16 666.991 75.8667 669.138 72.04C671.285 68.2133 674.225 65.2267 677.958 63.08C681.691 60.8867 685.891 59.79 690.558 59.79C693.078 59.79 695.551 60.0933 697.978 60.7C700.405 61.3067 702.481 62.17 704.208 63.29L702.318 74.14C698.958 72.88 695.925 72.25 693.218 72.25C689.485 72.25 686.615 73.3467 684.608 75.54C682.601 77.6867 681.598 80.79 681.598 84.85C681.598 88.8167 682.648 91.92 684.748 94.16C686.895 96.3533 689.858 97.45 693.638 97.45C695.085 97.45 696.438 97.31 697.698 97.03C698.958 96.75 700.498 96.2367 702.318 95.49L704.278 106.55C700.218 108.93 695.785 110.12 690.978 110.12Z" fill="black"/>
    <path d="M398.2 141.92H446.84L478.68 252H441.08L436.92 230.88H408.44L403.8 252H367.8L398.2 141.92ZM433.08 211.2L422.68 163.04L411.8 211.2H433.08ZM490.525 141.92H530.205C546.632 141.92 559.325 145.12 568.285 151.52C577.352 157.92 581.885 166.88 581.885 178.4C581.885 185.653 579.645 192 575.165 197.44C570.792 202.88 564.765 207.093 557.085 210.08C549.512 212.96 541.085 214.4 531.805 214.4H525.085V252H490.525V141.92ZM531.965 192.16C537.618 192.16 541.992 190.987 545.085 188.64C548.178 186.293 549.725 182.88 549.725 178.4C549.725 173.92 548.178 170.56 545.085 168.32C542.098 166.08 537.725 164.96 531.965 164.96H525.085V191.84C527.218 192.053 529.512 192.16 531.965 192.16ZM595.681 141.92H635.361C651.788 141.92 664.481 145.12 673.441 151.52C682.508 157.92 687.041 166.88 687.041 178.4C687.041 185.653 684.801 192 680.321 197.44C675.948 202.88 669.921 207.093 662.241 210.08C654.668 212.96 646.241 214.4 636.961 214.4H630.241V252H595.681V141.92ZM637.121 192.16C642.775 192.16 647.148 190.987 650.241 188.64C653.335 186.293 654.881 182.88 654.881 178.4C654.881 173.92 653.335 170.56 650.241 168.32C647.255 166.08 642.881 164.96 637.121 164.96H630.241V191.84C632.375 192.053 634.668 192.16 637.121 192.16Z" fill="black"/>
    <rect x="116" y="75" width="110" height="170" rx="3" fill="black"/>
    <circle cx="171.5" cy="113.5" r="12.5" stroke="white" stroke-width="10"/>
    <path d="M177.81 189.5C177.81 193.875 174.491 197 170.905 197C167.318 197 164 193.875 164 189.5C164 185.125 167.318 182 170.905 182C174.491 182 177.81 185.125 177.81 189.5Z" stroke="white" stroke-width="10"/>
    <circle cx="171" cy="190" r="35" stroke="white" stroke-width="10"/>
    <path d="M262 150C280.111 186.721 269.546 218.634 262 230" stroke="black" stroke-width="5" stroke-linecap="round"/>
    <path d="M240 160C253.583 187.541 245.66 211.475 240 220" stroke="black" stroke-width="5" stroke-linecap="round"/>
    <path d="M79 150C60.889 186.721 71.4538 218.634 79 230" stroke="black" stroke-width="5" stroke-linecap="round"/>
    <path d="M101.5 160C87.9168 187.541 95.8403 211.475 101.5 220" stroke="black" stroke-width="5" stroke-linecap="round"/>
    <line x1="133.5" y1="245.5" x2="133.5" y2="250.5" stroke="black" stroke-width="5" stroke-linecap="round"/>
    <line x1="213.5" y1="245.5" x2="213.5" y2="250.5" stroke="black" stroke-width="5" stroke-linecap="round"/>
  </symbol>
</svg>
